<?xml version="1.0" encoding="UTF-8"?>
<!DOCTYPE svg PUBLIC "-//W3C//DTD SVG 1.1//EN" "http://www.w3.org/Graphics/SVG/1.1/DTD/svg11.dtd">
<svg xmlns="http://www.w3.org/2000/svg" version="1.1" width="618px" height="618px" style="shape-rendering:geometricPrecision; text-rendering:geometricPrecision; image-rendering:optimizeQuality; fill-rule:evenodd; clip-rule:evenodd" xmlns:xlink="http://www.w3.org/1999/xlink">
<g><path style="opacity:1" fill="#353535" d="M 287.5,-0.5 C 301.5,-0.5 315.5,-0.5 329.5,-0.5C 343.51,0.705328 357.51,2.70533 371.5,5.5C 373.78,7.22267 376.447,7.88934 379.5,7.5C 382.939,7.78777 386.272,8.45444 389.5,9.5C 393.403,11.8978 397.736,13.2311 402.5,13.5C 404.102,15.0739 406.102,15.7406 408.5,15.5C 411.797,17.6013 415.463,18.9347 419.5,19.5C 431.821,23.4954 443.488,28.8287 454.5,35.5C 457.115,38.4835 460.448,40.4835 464.5,41.5C 466.153,41.6596 467.486,42.3263 468.5,43.5C 469.733,45.7964 471.733,47.1298 474.5,47.5C 475.492,47.3284 476.158,47.6618 476.5,48.5C 477.035,50.4456 478.368,51.4456 480.5,51.5C 480.973,52.9063 481.973,53.573 483.5,53.5C 484.035,55.4456 485.368,56.4456 487.5,56.5C 488.035,58.4456 489.368,59.4456 491.5,59.5C 491.973,60.9063 492.973,61.573 494.5,61.5C 495.539,63.5311 497.205,64.8645 499.5,65.5C 500.539,67.5311 502.205,68.8645 504.5,69.5C 505.5,69.8333 506.167,70.5 506.5,71.5C 507.585,73.5869 509.251,74.9202 511.5,75.5C 511.5,76.8333 512.167,77.5 513.5,77.5C 515.854,80.8515 518.854,83.5181 522.5,85.5C 522.5,87.5 523.5,88.5 525.5,88.5C 529.105,93.774 533.438,98.4407 538.5,102.5C 540.094,105.764 542.427,108.431 545.5,110.5C 546.08,112.749 547.413,114.415 549.5,115.5C 550.419,118.089 552.086,120.089 554.5,121.5C 554.738,123.404 555.738,124.738 557.5,125.5C 557.738,127.404 558.738,128.738 560.5,129.5C 560.427,131.027 561.094,132.027 562.5,132.5C 562.738,134.404 563.738,135.738 565.5,136.5C 565.427,138.027 566.094,139.027 567.5,139.5C 567.427,141.027 568.094,142.027 569.5,142.5C 569.427,144.027 570.094,145.027 571.5,145.5C 572.338,145.842 572.672,146.508 572.5,147.5C 572.427,149.027 573.094,150.027 574.5,150.5C 574.427,152.027 575.094,153.027 576.5,153.5C 578.008,155.181 579.008,157.181 579.5,159.5C 579.427,161.027 580.094,162.027 581.5,162.5C 587.229,171.96 591.896,181.96 595.5,192.5C 595.166,195.491 596.166,197.824 598.5,199.5C 598.12,201.698 598.787,203.365 600.5,204.5C 600.5,204.833 600.5,205.167 600.5,205.5C 601.39,211.166 603.057,216.5 605.5,221.5C 605.41,224.152 606.076,226.485 607.5,228.5C 610.419,238.2 612.419,248.2 613.5,258.5C 613.444,263.731 614.111,268.731 615.5,273.5C 616.441,278.07 616.774,282.737 616.5,287.5C 616.605,305.844 616.272,324.177 615.5,342.5C 615.095,352.332 613.762,361.998 611.5,371.5C 609.777,373.78 609.111,376.447 609.5,379.5C 609.118,384.092 608.118,388.425 606.5,392.5C 604.59,395.452 603.59,398.786 603.5,402.5C 601.926,404.102 601.259,406.102 601.5,408.5C 601.405,410.786 600.738,412.786 599.5,414.5C 598.069,415.78 597.402,417.447 597.5,419.5C 596.069,420.78 595.402,422.447 595.5,424.5C 591.562,435.707 586.562,446.374 580.5,456.5C 579.094,456.973 578.427,457.973 578.5,459.5C 578.34,461.153 577.674,462.486 576.5,463.5C 575.094,463.973 574.427,464.973 574.5,466.5C 573.89,468.434 572.89,470.101 571.5,471.5C 570.094,471.973 569.427,472.973 569.5,474.5C 568.094,474.973 567.427,475.973 567.5,477.5C 566.094,477.973 565.427,478.973 565.5,480.5C 564.094,480.973 563.427,481.973 563.5,483.5C 562.974,485.23 561.974,486.564 560.5,487.5C 559.094,487.973 558.427,488.973 558.5,490.5C 558.5,491.167 558.167,491.5 557.5,491.5C 556.094,491.973 555.427,492.973 555.5,494.5C 555.5,495.167 555.167,495.5 554.5,495.5C 553.094,495.973 552.427,496.973 552.5,498.5C 550.628,501.582 548.295,504.249 545.5,506.5C 543.413,507.585 542.08,509.251 541.5,511.5C 540.833,512.833 539.833,513.833 538.5,514.5C 537.167,515.167 536.167,516.167 535.5,517.5C 534.094,517.973 533.427,518.973 533.5,520.5C 528.833,525.833 523.833,530.833 518.5,535.5C 516.973,535.427 515.973,536.094 515.5,537.5C 513.833,539.833 511.833,541.833 509.5,543.5C 507.596,543.738 506.262,544.738 505.5,546.5C 504.833,547.833 503.833,548.833 502.5,549.5C 500.973,549.427 499.973,550.094 499.5,551.5C 499.167,552.5 498.5,553.167 497.5,553.5C 495.973,553.427 494.973,554.094 494.5,555.5C 493.055,557.063 491.389,558.396 489.5,559.5C 487.973,559.427 486.973,560.094 486.5,561.5C 485.564,562.974 484.23,563.974 482.5,564.5C 480.973,564.427 479.973,565.094 479.5,566.5C 477.973,566.427 476.973,567.094 476.5,568.5C 472.677,571.916 468.343,574.582 463.5,576.5C 461.973,576.427 460.973,577.094 460.5,578.5C 458.819,580.008 456.819,581.008 454.5,581.5C 452.973,581.427 451.973,582.094 451.5,583.5C 449.819,585.008 447.819,586.008 445.5,586.5C 443.62,586.229 442.287,586.896 441.5,588.5C 437.134,591.012 432.467,593.012 427.5,594.5C 425.447,594.402 423.78,595.069 422.5,596.5C 420.447,596.402 418.78,597.069 417.5,598.5C 411.784,601.072 405.784,603.072 399.5,604.5C 396.848,604.41 394.515,605.076 392.5,606.5C 371.844,612.22 350.844,615.887 329.5,617.5C 315.5,617.5 301.5,617.5 287.5,617.5C 281.996,616.635 276.329,615.968 270.5,615.5C 266.79,613.864 262.79,613.198 258.5,613.5C 248.155,612.631 238.155,610.631 228.5,607.5C 226.485,606.076 224.152,605.41 221.5,605.5C 218.495,603.723 215.162,602.723 211.5,602.5C 209.901,602.768 208.568,602.434 207.5,601.5C 206.365,599.787 204.698,599.12 202.5,599.5C 202.167,599.5 201.833,599.5 201.5,599.5C 200.365,597.787 198.698,597.12 196.5,597.5C 195.365,595.787 193.698,595.12 191.5,595.5C 190.365,593.787 188.698,593.12 186.5,593.5C 185.817,591.824 184.483,591.157 182.5,591.5C 181.365,589.787 179.698,589.12 177.5,589.5C 174.515,588.674 171.849,587.341 169.5,585.5C 168.656,583.241 166.989,582.241 164.5,582.5C 162.181,582.008 160.181,581.008 158.5,579.5C 157.656,577.241 155.989,576.241 153.5,576.5C 152.508,576.672 151.842,576.338 151.5,575.5C 151.027,574.094 150.027,573.427 148.5,573.5C 148.027,572.094 147.027,571.427 145.5,571.5C 145.027,570.094 144.027,569.427 142.5,569.5C 142.027,568.094 141.027,567.427 139.5,567.5C 139.027,566.094 138.027,565.427 136.5,565.5C 136.027,564.094 135.027,563.427 133.5,563.5C 132.738,561.738 131.404,560.738 129.5,560.5C 129.027,559.094 128.027,558.427 126.5,558.5C 125.415,556.413 123.749,555.08 121.5,554.5C 120.415,552.413 118.749,551.08 116.5,550.5C 115.089,548.086 113.089,546.419 110.5,545.5C 108.761,542.757 106.427,540.757 103.5,539.5C 102.833,538.167 101.833,537.167 100.5,536.5C 96.4407,531.438 91.774,527.105 86.5,523.5C 84.8536,520.19 82.5203,517.523 79.5,515.5C 78.5,515.167 77.8333,514.5 77.5,513.5C 77.5123,510.858 76.179,509.525 73.5,509.5C 72.1667,507.833 70.8333,506.167 69.5,504.5C 68.8645,502.205 67.5311,500.539 65.5,499.5C 65.4456,497.368 64.4456,496.035 62.5,495.5C 62.4456,493.368 61.4456,492.035 59.5,491.5C 59.4456,489.368 58.4456,488.035 56.5,487.5C 56.4456,485.368 55.4456,484.035 53.5,483.5C 50.7795,480.106 48.4462,476.439 46.5,472.5C 46.4456,470.368 45.4456,469.035 43.5,468.5C 42.6618,468.158 42.3284,467.492 42.5,466.5C 42.7148,464.821 42.0481,463.821 40.5,463.5C 39.3263,462.486 38.6596,461.153 38.5,459.5C 38.7148,457.821 38.0481,456.821 36.5,456.5C 32.3255,449.484 28.6588,442.151 25.5,434.5C 25.5979,432.447 24.9313,430.78 23.5,429.5C 21.0363,425.556 19.3697,421.223 18.5,416.5C 18.2671,413.458 17.2671,410.792 15.5,408.5C 14.2724,401.822 12.2724,395.488 9.5,389.5C 7.99354,384.97 6.99354,380.303 6.5,375.5C 6.78472,372.171 6.11805,369.171 4.5,366.5C 2.45748,354.09 0.790815,341.757 -0.5,329.5C -0.5,315.5 -0.5,301.5 -0.5,287.5C 0.994353,267.534 4.32769,247.867 9.5,228.5C 10.9238,226.485 11.5905,224.152 11.5,221.5C 14.4111,214.767 16.7444,207.767 18.5,200.5C 18.5,200.167 18.5,199.833 18.5,199.5C 20.2132,198.365 20.8799,196.698 20.5,194.5C 22.2132,193.365 22.8799,191.698 22.5,189.5C 24.8337,187.824 25.8337,185.491 25.5,182.5C 27.1765,181.817 27.8432,180.483 27.5,178.5C 28.3257,175.515 29.659,172.849 31.5,170.5C 35.0863,167.004 37.4196,162.671 38.5,157.5C 40.4077,156.514 41.4077,154.848 41.5,152.5C 43.4077,151.514 44.4077,149.848 44.5,147.5C 45.9063,147.027 46.573,146.027 46.5,144.5C 46.3284,143.508 46.6618,142.842 47.5,142.5C 48.9063,142.027 49.573,141.027 49.5,139.5C 51.2624,138.738 52.2624,137.404 52.5,135.5C 53.9063,135.027 54.573,134.027 54.5,132.5C 56.2624,131.738 57.2624,130.404 57.5,128.5C 59.2624,127.738 60.2624,126.404 60.5,124.5C 62.2624,123.738 63.2624,122.404 63.5,120.5C 65.2624,119.738 66.2624,118.404 66.5,116.5C 69.2427,114.761 71.2427,112.427 72.5,109.5C 75.2427,107.761 77.2427,105.427 78.5,102.5C 78.8333,101.5 79.5,100.833 80.5,100.5C 87.1667,94.5 93.5,88.1667 99.5,81.5C 103.436,79.2343 106.769,76.2343 109.5,72.5C 112.089,71.5806 114.089,69.914 115.5,67.5C 117.749,66.9202 119.415,65.5869 120.5,63.5C 122.404,63.2624 123.738,62.2624 124.5,60.5C 126.749,59.9202 128.415,58.5869 129.5,56.5C 131.027,56.573 132.027,55.9063 132.5,54.5C 134.027,54.573 135.027,53.9063 135.5,52.5C 137.027,52.573 138.027,51.9063 138.5,50.5C 140.027,50.573 141.027,49.9063 141.5,48.5C 143.027,48.573 144.027,47.9063 144.5,46.5C 146.027,46.573 147.027,45.9063 147.5,44.5C 149.027,44.573 150.027,43.9063 150.5,42.5C 152.848,42.4077 154.514,41.4077 155.5,39.5C 156.514,38.3263 157.847,37.6596 159.5,37.5C 161.027,37.573 162.027,36.9063 162.5,35.5C 166.182,32.9922 170.182,30.9922 174.5,29.5C 180.175,28.4942 185.175,26.1609 189.5,22.5C 191.698,22.8799 193.365,22.2132 194.5,20.5C 197.716,20.6545 200.383,19.6545 202.5,17.5C 209.167,16.2762 215.501,14.2762 221.5,11.5C 224.152,11.5905 226.485,10.9238 228.5,9.5C 240.772,5.67484 253.439,3.3415 266.5,2.5C 272.069,2.62397 277.402,1.95731 282.5,0.5C 284.415,0.784479 286.081,0.451145 287.5,-0.5 Z"/></g>
<g><path style="opacity:0.91" fill="#818181" d="M 282.5,0.5 C 277.402,1.95731 272.069,2.62397 266.5,2.5C 271.616,1.19371 276.949,0.527047 282.5,0.5 Z"/></g>
<g><path style="opacity:0.886" fill="#868686" d="M 371.5,5.5 C 374.373,5.80233 377.039,6.46899 379.5,7.5C 376.447,7.88934 373.78,7.22267 371.5,5.5 Z"/></g>
<g><path style="opacity:0.824" fill="#949494" d="M 228.5,9.5 C 226.485,10.9238 224.152,11.5905 221.5,11.5C 223.515,10.0762 225.848,9.40953 228.5,9.5 Z"/></g>
<g><path style="opacity:0.631" fill="#9b9b9b" d="M 389.5,9.5 C 394.072,10.3876 398.405,11.7209 402.5,13.5C 397.736,13.2311 393.403,11.8978 389.5,9.5 Z"/></g>
<g><path style="opacity:0.886" fill="#888888" d="M 221.5,11.5 C 215.501,14.2762 209.167,16.2762 202.5,17.5C 208.499,14.7238 214.833,12.7238 221.5,11.5 Z"/></g>
<g><path style="opacity:0.71" fill="#919191" d="M 402.5,13.5 C 404.786,13.595 406.786,14.2616 408.5,15.5C 406.102,15.7406 404.102,15.0739 402.5,13.5 Z"/></g>
<g><path style="opacity:0.62" fill="#9b9b9b" d="M 408.5,15.5 C 412.537,16.0653 416.203,17.3987 419.5,19.5C 415.463,18.9347 411.797,17.6013 408.5,15.5 Z"/></g>
<g><path style="opacity:0.949" fill="#808080" d="M 202.5,17.5 C 200.383,19.6545 197.716,20.6545 194.5,20.5C 196.936,19.129 199.603,18.129 202.5,17.5 Z"/></g>
<g><path style="opacity:0.949" fill="#8b8b8b" d="M 194.5,20.5 C 193.365,22.2132 191.698,22.8799 189.5,22.5C 190.93,21.4625 192.597,20.7959 194.5,20.5 Z"/></g>
<g><path style="opacity:1" fill="#6c6c6c" d="M 189.5,22.5 C 185.175,26.1609 180.175,28.4942 174.5,29.5C 179.07,26.3836 184.07,24.0502 189.5,22.5 Z"/></g>
<g><path style="opacity:0.761" fill="#989898" d="M 162.5,35.5 C 162.027,36.9063 161.027,37.573 159.5,37.5C 159.973,36.0937 160.973,35.427 162.5,35.5 Z"/></g>
<g><path style="opacity:1" fill="#8f8f8f" d="M 454.5,35.5 C 458.173,37.0002 461.506,39.0002 464.5,41.5C 460.448,40.4835 457.115,38.4835 454.5,35.5 Z"/></g>
<g><path style="opacity:0.659" fill="#909090" d="M 155.5,39.5 C 154.514,41.4077 152.848,42.4077 150.5,42.5C 151.659,40.7497 153.326,39.7497 155.5,39.5 Z"/></g>
<g><path style="opacity:0.773" fill="#949494" d="M 150.5,42.5 C 150.027,43.9063 149.027,44.573 147.5,44.5C 147.973,43.0937 148.973,42.427 150.5,42.5 Z"/></g>
<g><path style="opacity:0.988" fill="#929292" d="M 468.5,43.5 C 470.882,44.3507 472.882,45.684 474.5,47.5C 471.733,47.1298 469.733,45.7964 468.5,43.5 Z"/></g>
<g><path style="opacity:0.847" fill="#898989" d="M 147.5,44.5 C 147.027,45.9063 146.027,46.573 144.5,46.5C 144.973,45.0937 145.973,44.427 147.5,44.5 Z"/></g>
<g><path style="opacity:0.875" fill="#828282" d="M 144.5,46.5 C 144.027,47.9063 143.027,48.573 141.5,48.5C 141.973,47.0937 142.973,46.427 144.5,46.5 Z"/></g>
<g><path style="opacity:0.898" fill="#7f7f7f" d="M 141.5,48.5 C 141.027,49.9063 140.027,50.573 138.5,50.5C 138.973,49.0937 139.973,48.427 141.5,48.5 Z"/></g>
<g><path style="opacity:0.91" fill="#969696" d="M 476.5,48.5 C 478.23,49.0256 479.564,50.0256 480.5,51.5C 478.368,51.4456 477.035,50.4456 476.5,48.5 Z"/></g>
<g><path style="opacity:0.875" fill="#828282" d="M 138.5,50.5 C 138.027,51.9063 137.027,52.573 135.5,52.5C 135.973,51.0937 136.973,50.427 138.5,50.5 Z"/></g>
<g><path style="opacity:0.075" fill="#bbbbbb" d="M 480.5,51.5 C 482.027,51.427 483.027,52.0937 483.5,53.5C 481.973,53.573 480.973,52.9063 480.5,51.5 Z"/></g>
<g><path style="opacity:0.824" fill="#8c8c8c" d="M 135.5,52.5 C 135.027,53.9063 134.027,54.573 132.5,54.5C 132.973,53.0937 133.973,52.427 135.5,52.5 Z"/></g>
<g><path style="opacity:0.988" fill="#8a8a8a" d="M 483.5,53.5 C 485.23,54.0256 486.564,55.0256 487.5,56.5C 485.368,56.4456 484.035,55.4456 483.5,53.5 Z"/></g>
<g><path style="opacity:0.733" fill="#999999" d="M 132.5,54.5 C 132.027,55.9063 131.027,56.573 129.5,56.5C 129.973,55.0937 130.973,54.427 132.5,54.5 Z"/></g>
<g><path style="opacity:1" fill="#828282" d="M 487.5,56.5 C 489.23,57.0256 490.564,58.0256 491.5,59.5C 489.368,59.4456 488.035,58.4456 487.5,56.5 Z"/></g>
<g><path style="opacity:0.937" fill="#878787" d="M 129.5,56.5 C 128.415,58.5869 126.749,59.9202 124.5,60.5C 125.585,58.4131 127.251,57.0798 129.5,56.5 Z"/></g>
<g><path style="opacity:0.09" fill="#b9b9b9" d="M 491.5,59.5 C 493.027,59.427 494.027,60.0937 494.5,61.5C 492.973,61.573 491.973,60.9063 491.5,59.5 Z"/></g>
<g><path style="opacity:0.761" fill="#8c8c8c" d="M 124.5,60.5 C 123.738,62.2624 122.404,63.2624 120.5,63.5C 121.262,61.7376 122.596,60.7376 124.5,60.5 Z"/></g>
<g><path style="opacity:0.58" fill="#a0a0a0" d="M 494.5,61.5 C 496.754,62.1237 498.421,63.457 499.5,65.5C 497.205,64.8645 495.539,63.5311 494.5,61.5 Z"/></g>
<g><path style="opacity:0.91" fill="#858585" d="M 120.5,63.5 C 119.415,65.5869 117.749,66.9202 115.5,67.5C 116.585,65.4131 118.251,64.0798 120.5,63.5 Z"/></g>
<g><path style="opacity:0.557" fill="#a1a1a1" d="M 499.5,65.5 C 501.754,66.1237 503.421,67.457 504.5,69.5C 502.205,68.8645 500.539,67.5311 499.5,65.5 Z"/></g>
<g><path style="opacity:0.875" fill="#878787" d="M 115.5,67.5 C 114.089,69.914 112.089,71.5806 109.5,72.5C 110.911,70.086 112.911,68.4194 115.5,67.5 Z"/></g>
<g><path style="opacity:0.051" fill="#bababa" d="M 506.5,71.5 C 508.749,72.0798 510.415,73.4131 511.5,75.5C 509.251,74.9202 507.585,73.5869 506.5,71.5 Z"/></g>
<g><path style="opacity:0.835" fill="#949494" d="M 511.5,75.5 C 512.5,75.8333 513.167,76.5 513.5,77.5C 512.167,77.5 511.5,76.8333 511.5,75.5 Z"/></g>
<g><path style="opacity:1" fill="#767676" d="M 109.5,72.5 C 106.769,76.2343 103.436,79.2343 99.5,81.5C 102.231,77.7657 105.564,74.7657 109.5,72.5 Z"/></g>
<g><path style="opacity:0.506" fill="#a5a5a5" d="M 513.5,77.5 C 517.12,79.4528 520.12,82.1195 522.5,85.5C 518.854,83.5181 515.854,80.8515 513.5,77.5 Z"/></g>
<g><path style="opacity:0.784" fill="#999999" d="M 522.5,85.5 C 523.833,86.1667 524.833,87.1667 525.5,88.5C 523.5,88.5 522.5,87.5 522.5,85.5 Z"/></g>
<g><path style="opacity:0.796" fill="#969696" d="M 99.5,81.5 C 93.5,88.1667 87.1667,94.5 80.5,100.5C 85.8333,93.1667 92.1667,86.8333 99.5,81.5 Z"/></g>
<g><path style="opacity:0.824" fill="#a6a6a6" d="M 525.5,88.5 C 530.562,92.5593 534.895,97.226 538.5,102.5C 533.438,98.4407 529.105,93.774 525.5,88.5 Z"/></g>
<g><path style="opacity:0.925" fill="#969696" d="M 538.5,102.5 C 541.573,104.569 543.906,107.236 545.5,110.5C 542.427,108.431 540.094,105.764 538.5,102.5 Z"/></g>
<g><path style="opacity:0.784" fill="#979797" d="M 78.5,102.5 C 77.2427,105.427 75.2427,107.761 72.5,109.5C 73.7573,106.573 75.7573,104.239 78.5,102.5 Z"/></g>
<g><path style="opacity:0.898" fill="#929292" d="M 545.5,110.5 C 547.587,111.585 548.92,113.251 549.5,115.5C 547.413,114.415 546.08,112.749 545.5,110.5 Z"/></g>
<g><path style="opacity:0.784" fill="#969696" d="M 72.5,109.5 C 71.2427,112.427 69.2427,114.761 66.5,116.5C 67.7573,113.573 69.7573,111.239 72.5,109.5 Z"/></g>
<g><path style="opacity:0.824" fill="#969696" d="M 66.5,116.5 C 66.2624,118.404 65.2624,119.738 63.5,120.5C 63.7376,118.596 64.7376,117.262 66.5,116.5 Z"/></g>
<g><path style="opacity:0.58" fill="#a0a0a0" d="M 549.5,115.5 C 551.914,116.911 553.581,118.911 554.5,121.5C 552.086,120.089 550.419,118.089 549.5,115.5 Z"/></g>
<g><path style="opacity:0.91" fill="#8b8b8b" d="M 63.5,120.5 C 63.2624,122.404 62.2624,123.738 60.5,124.5C 60.7376,122.596 61.7376,121.262 63.5,120.5 Z"/></g>
<g><path style="opacity:0.784" fill="#9b9b9b" d="M 554.5,121.5 C 556.262,122.262 557.262,123.596 557.5,125.5C 555.738,124.738 554.738,123.404 554.5,121.5 Z"/></g>
<g><path style="opacity:0.937" fill="#878787" d="M 60.5,124.5 C 60.2624,126.404 59.2624,127.738 57.5,128.5C 57.7376,126.596 58.7376,125.262 60.5,124.5 Z"/></g>
<g><path style="opacity:0.631" fill="#9b9b9b" d="M 557.5,125.5 C 559.262,126.262 560.262,127.596 560.5,129.5C 558.738,128.738 557.738,127.404 557.5,125.5 Z"/></g>
<g><path style="opacity:0.733" fill="#909090" d="M 57.5,128.5 C 57.2624,130.404 56.2624,131.738 54.5,132.5C 54.7376,130.596 55.7376,129.262 57.5,128.5 Z"/></g>
<g><path style="opacity:0.58" fill="#9a9a9a" d="M 560.5,129.5 C 561.906,129.973 562.573,130.973 562.5,132.5C 561.094,132.027 560.427,131.027 560.5,129.5 Z"/></g>
<g><path style="opacity:0.62" fill="#969696" d="M 54.5,132.5 C 54.573,134.027 53.9063,135.027 52.5,135.5C 52.427,133.973 53.0937,132.973 54.5,132.5 Z"/></g>
<g><path style="opacity:0.647" fill="#999999" d="M 562.5,132.5 C 564.262,133.262 565.262,134.596 565.5,136.5C 563.738,135.738 562.738,134.404 562.5,132.5 Z"/></g>
<g><path style="opacity:0.698" fill="#949494" d="M 52.5,135.5 C 52.2624,137.404 51.2624,138.738 49.5,139.5C 49.7376,137.596 50.7376,136.262 52.5,135.5 Z"/></g>
<g><path style="opacity:0.404" fill="#afafaf" d="M 565.5,136.5 C 566.906,136.973 567.573,137.973 567.5,139.5C 566.094,139.027 565.427,138.027 565.5,136.5 Z"/></g>
<g><path style="opacity:0.38" fill="#afafaf" d="M 49.5,139.5 C 49.573,141.027 48.9063,142.027 47.5,142.5C 47.427,140.973 48.0937,139.973 49.5,139.5 Z"/></g>
<g><path style="opacity:0.443" fill="#ababab" d="M 567.5,139.5 C 568.906,139.973 569.573,140.973 569.5,142.5C 568.094,142.027 567.427,141.027 567.5,139.5 Z"/></g>
<g><path style="opacity:0.404" fill="#adadad" d="M 569.5,142.5 C 570.906,142.973 571.573,143.973 571.5,145.5C 570.094,145.027 569.427,144.027 569.5,142.5 Z"/></g>
<g><path style="opacity:0.557" fill="#989898" d="M 46.5,144.5 C 46.573,146.027 45.9063,147.027 44.5,147.5C 44.427,145.973 45.0937,144.973 46.5,144.5 Z"/></g>
<g><path style="opacity:0.506" fill="#9e9e9e" d="M 572.5,147.5 C 573.906,147.973 574.573,148.973 574.5,150.5C 573.094,150.027 572.427,149.027 572.5,147.5 Z"/></g>
<g><path style="opacity:1" fill="#787878" d="M 44.5,147.5 C 44.4077,149.848 43.4077,151.514 41.5,152.5C 41.7497,150.326 42.7497,148.659 44.5,147.5 Z"/></g>
<g><path style="opacity:0.341" fill="#b2b2b2" d="M 574.5,150.5 C 575.906,150.973 576.573,151.973 576.5,153.5C 575.094,153.027 574.427,152.027 574.5,150.5 Z"/></g>
<g><path style="opacity:1" fill="#7a7a7a" d="M 41.5,152.5 C 41.4077,154.848 40.4077,156.514 38.5,157.5C 38.7497,155.326 39.7497,153.659 41.5,152.5 Z"/></g>
<g><path style="opacity:0.404" fill="#a9a9a9" d="M 579.5,159.5 C 580.906,159.973 581.573,160.973 581.5,162.5C 580.094,162.027 579.427,161.027 579.5,159.5 Z"/></g>
<g><path style="opacity:1" fill="#686868" d="M 38.5,157.5 C 37.4196,162.671 35.0863,167.004 31.5,170.5C 33.0741,165.68 35.4074,161.347 38.5,157.5 Z"/></g>
<g><path style="opacity:1" fill="#787878" d="M 27.5,178.5 C 27.8432,180.483 27.1765,181.817 25.5,182.5C 25.6596,180.847 26.3263,179.514 27.5,178.5 Z"/></g>
<g><path style="opacity:1" fill="#888888" d="M 25.5,182.5 C 25.8337,185.491 24.8337,187.824 22.5,189.5C 22.9348,186.843 23.9348,184.509 25.5,182.5 Z"/></g>
<g><path style="opacity:1" fill="#c4c4c4" d="M 201.5,188.5 C 201.5,188.833 201.5,189.167 201.5,189.5C 191.148,189.399 180.815,189.733 170.5,190.5C 171.952,189.698 173.618,189.198 175.5,189C 184.16,188.5 192.827,188.334 201.5,188.5 Z"/></g>
<g><path style="opacity:1" fill="#636363" d="M 201.5,189.5 C 201.5,189.167 201.5,188.833 201.5,188.5C 204.187,188.336 206.854,188.503 209.5,189C 210.416,189.278 211.082,189.778 211.5,190.5C 208.193,189.949 204.86,189.616 201.5,189.5 Z"/></g>
<g><path style="opacity:1" fill="#a9a9a9" d="M 476.5,189.5 C 492.338,188.173 508.338,188.173 524.5,189.5C 524.376,190.107 524.043,190.44 523.5,190.5C 508.009,189.504 492.342,189.17 476.5,189.5 Z"/></g>
<g><path style="opacity:1" fill="#fcfcfc" d="M 201.5,189.5 C 204.86,189.616 208.193,189.949 211.5,190.5C 212.5,190.5 213.5,190.5 214.5,190.5C 216.515,191.924 218.848,192.59 221.5,192.5C 221.833,192.5 222.167,192.5 222.5,192.5C 224.509,194.065 226.843,195.065 229.5,195.5C 257.348,208.348 276.015,229.348 285.5,258.5C 285.12,260.698 285.787,262.365 287.5,263.5C 290.19,271.949 291.856,280.616 292.5,289.5C 293.232,298.815 293.566,308.148 293.5,317.5C 236.5,317.5 179.5,317.5 122.5,317.5C 122.953,372.452 150.62,398.286 205.5,395C 209.754,393.735 214.088,392.902 218.5,392.5C 220.967,392.245 222.967,391.245 224.5,389.5C 239.744,382.273 249.41,370.606 253.5,354.5C 265.5,354.5 277.5,354.5 289.5,354.5C 289.5,355.833 289.5,357.167 289.5,358.5C 280.957,392.212 259.957,414.045 226.5,424C 198.699,431.111 171.366,429.778 144.5,420C 116.261,406.084 97.7614,383.917 89,353.5C 87.0047,344.521 85.1714,335.521 83.5,326.5C 82.7865,316.516 82.4532,306.516 82.5,296.5C 85.1329,254.033 104.466,221.866 140.5,200C 149.907,194.92 159.907,191.753 170.5,190.5C 180.815,189.733 191.148,189.399 201.5,189.5 Z"/></g>
<g><path style="opacity:1" fill="#fbfbfb" d="M 476.5,189.5 C 492.342,189.17 508.009,189.504 523.5,190.5C 496.349,226.494 469.349,262.661 442.5,299C 472.303,340.787 501.97,382.62 531.5,424.5C 531.414,425.496 531.748,426.329 532.5,427C 516.17,427.5 499.837,427.667 483.5,427.5C 461.917,394.578 439.917,361.912 417.5,329.5C 395.083,361.912 373.083,394.578 351.5,427.5C 335.658,427.83 319.991,427.496 304.5,426.5C 333.952,385.1 363.286,343.6 392.5,302C 364.988,264.651 337.654,227.151 310.5,189.5C 327.167,188.167 343.833,188.167 360.5,189.5C 379.513,216.871 398.513,244.204 417.5,271.5C 437.654,244.528 457.321,217.195 476.5,189.5 Z"/></g>
<g><path style="opacity:1" fill="#747474" d="M 214.5,190.5 C 217.152,190.41 219.485,191.076 221.5,192.5C 218.848,192.59 216.515,191.924 214.5,190.5 Z"/></g>
<g><path style="opacity:0.961" fill="#848484" d="M 22.5,189.5 C 22.8799,191.698 22.2132,193.365 20.5,194.5C 20.7959,192.597 21.4625,190.93 22.5,189.5 Z"/></g>
<g><path style="opacity:1" fill="#666666" d="M 222.5,192.5 C 225.491,192.166 227.824,193.166 229.5,195.5C 226.843,195.065 224.509,194.065 222.5,192.5 Z"/></g>
<g><path style="opacity:1" fill="#838383" d="M 595.5,192.5 C 597.065,194.509 598.065,196.843 598.5,199.5C 596.166,197.824 595.166,195.491 595.5,192.5 Z"/></g>
<g><path style="opacity:0.949" fill="#898989" d="M 20.5,194.5 C 20.8799,196.698 20.2132,198.365 18.5,199.5C 18.7959,197.597 19.4625,195.93 20.5,194.5 Z"/></g>
<g><path style="opacity:0.875" fill="#959595" d="M 598.5,199.5 C 599.537,200.93 600.204,202.597 600.5,204.5C 598.787,203.365 598.12,201.698 598.5,199.5 Z"/></g>
<g><path style="opacity:0.875" fill="#8e8e8e" d="M 18.5,200.5 C 16.7444,207.767 14.4111,214.767 11.5,221.5C 12.8604,214.085 15.1937,207.085 18.5,200.5 Z"/></g>
<g><path style="opacity:0.937" fill="#8f8f8f" d="M 600.5,205.5 C 602.943,210.5 604.61,215.834 605.5,221.5C 603.057,216.5 601.39,211.166 600.5,205.5 Z"/></g>
<g><path style="opacity:1" fill="#363636" d="M 251.5,271.5 C 251.41,274.152 252.076,276.485 253.5,278.5C 253.5,279.5 253.5,280.5 253.5,281.5C 253.5,282.833 253.5,284.167 253.5,285.5C 210.167,285.5 166.833,285.5 123.5,285.5C 123.5,283.5 123.5,281.5 123.5,279.5C 123.993,277.194 124.326,274.861 124.5,272.5C 125.924,270.485 126.59,268.152 126.5,265.5C 136.848,237.556 157.015,222.889 187,221.5C 220.227,223.182 241.727,239.848 251.5,271.5 Z"/></g>
<g><path style="opacity:0.698" fill="#939393" d="M 11.5,221.5 C 11.5905,224.152 10.9238,226.485 9.5,228.5C 9.40953,225.848 10.0762,223.515 11.5,221.5 Z"/></g>
<g><path style="opacity:0.647" fill="#9d9d9d" d="M 605.5,221.5 C 606.924,223.515 607.59,225.848 607.5,228.5C 606.076,226.485 605.41,224.152 605.5,221.5 Z"/></g>
<g><path style="opacity:1" fill="#aeaeae" d="M 285.5,258.5 C 286.537,259.93 287.204,261.597 287.5,263.5C 285.787,262.365 285.12,260.698 285.5,258.5 Z"/></g>
<g><path style="opacity:0.91" fill="#848484" d="M 613.5,258.5 C 614.889,263.269 615.556,268.269 615.5,273.5C 614.111,268.731 613.444,263.731 613.5,258.5 Z"/></g>
<g><path style="opacity:1" fill="#696969" d="M 126.5,265.5 C 126.59,268.152 125.924,270.485 124.5,272.5C 124.41,269.848 125.076,267.515 126.5,265.5 Z"/></g>
<g><path style="opacity:1" fill="#959595" d="M 251.5,271.5 C 252.924,273.515 253.59,275.848 253.5,278.5C 252.076,276.485 251.41,274.152 251.5,271.5 Z"/></g>
<g><path style="opacity:1" fill="#929292" d="M 124.5,272.5 C 124.326,274.861 123.993,277.194 123.5,279.5C 123.167,279.5 122.833,279.5 122.5,279.5C 122.41,276.848 123.076,274.515 124.5,272.5 Z"/></g>
<g><path style="opacity:1" fill="#484848" d="M 122.5,279.5 C 122.833,279.5 123.167,279.5 123.5,279.5C 123.5,281.5 123.5,283.5 123.5,285.5C 166.833,285.5 210.167,285.5 253.5,285.5C 210.003,286.499 166.337,286.832 122.5,286.5C 122.5,284.167 122.5,281.833 122.5,279.5 Z"/></g>
<g><path style="opacity:1" fill="#bababa" d="M 253.5,281.5 C 254.461,283.265 254.795,285.265 254.5,287.5C 210.33,287.832 166.33,287.499 122.5,286.5C 166.337,286.832 210.003,286.499 253.5,285.5C 253.5,284.167 253.5,282.833 253.5,281.5 Z"/></g>
<g><path style="opacity:1" fill="#9f9f9f" d="M 292.5,289.5 C 293.984,294.925 294.651,300.591 294.5,306.5C 294.499,310.349 294.165,314.016 293.5,317.5C 293.566,308.148 293.232,298.815 292.5,289.5 Z"/></g>
<g><path style="opacity:0.662" fill="#929292" d="M 616.5,287.5 C 616.833,287.5 617.167,287.5 617.5,287.5C 617.5,301.5 617.5,315.5 617.5,329.5C 616.833,333.833 616.167,338.167 615.5,342.5C 616.272,324.177 616.605,305.844 616.5,287.5 Z"/></g>
<g><path style="opacity:1" fill="#5e5e5e" d="M 82.5,296.5 C 82.4532,306.516 82.7865,316.516 83.5,326.5C 82.037,320.566 81.3703,314.399 81.5,308C 81.5012,303.985 81.8345,300.151 82.5,296.5 Z"/></g>
<g><path style="opacity:1" fill="#7d7d7d" d="M 253.5,354.5 C 265.655,353.505 277.989,353.171 290.5,353.5C 290.784,355.415 290.451,357.081 289.5,358.5C 289.5,357.167 289.5,355.833 289.5,354.5C 277.5,354.5 265.5,354.5 253.5,354.5 Z"/></g>
<g><path style="opacity:0.443" fill="#a2a2a2" d="M 4.5,366.5 C 6.11805,369.171 6.78472,372.171 6.5,375.5C 5.34281,372.727 4.67615,369.727 4.5,366.5 Z"/></g>
<g><path style="opacity:0.886" fill="#848484" d="M 611.5,371.5 C 611.198,374.373 610.531,377.039 609.5,379.5C 609.111,376.447 609.777,373.78 611.5,371.5 Z"/></g>
<g><path style="opacity:1" fill="#c3c3c3" d="M 224.5,389.5 C 222.967,391.245 220.967,392.245 218.5,392.5C 220.033,390.755 222.033,389.755 224.5,389.5 Z"/></g>
<g><path style="opacity:0.631" fill="#9f9f9f" d="M 9.5,389.5 C 12.2724,395.488 14.2724,401.822 15.5,408.5C 12.7446,402.501 10.7446,396.168 9.5,389.5 Z"/></g>
<g><path style="opacity:0.733" fill="#989898" d="M 606.5,392.5 C 606.101,396.116 605.101,399.45 603.5,402.5C 603.59,398.786 604.59,395.452 606.5,392.5 Z"/></g>
<g><path style="opacity:0.71" fill="#909090" d="M 603.5,402.5 C 603.405,404.786 602.738,406.786 601.5,408.5C 601.259,406.102 601.926,404.102 603.5,402.5 Z"/></g>
<g><path style="opacity:0.533" fill="#9d9d9d" d="M 15.5,408.5 C 17.2671,410.792 18.2671,413.458 18.5,416.5C 16.7329,414.208 15.7329,411.542 15.5,408.5 Z"/></g>
<g><path style="opacity:0.431" fill="#a8a8a8" d="M 599.5,414.5 C 599.598,416.553 598.931,418.22 597.5,419.5C 597.402,417.447 598.069,415.78 599.5,414.5 Z"/></g>
<g><path style="opacity:0.482" fill="#a2a2a2" d="M 597.5,419.5 C 597.598,421.553 596.931,423.22 595.5,424.5C 595.402,422.447 596.069,420.78 597.5,419.5 Z"/></g>
<g><path style="opacity:1" fill="#cecece" d="M 304.5,426.5 C 319.991,427.496 335.658,427.83 351.5,427.5C 351.5,428.167 351.167,428.5 350.5,428.5C 334.658,428.83 318.991,428.496 303.5,427.5C 303.5,426.833 303.833,426.5 304.5,426.5 Z"/></g>
<g><path style="opacity:1" fill="#cecece" d="M 531.5,424.5 C 532.812,425.145 533.812,426.145 534.5,427.5C 517.338,428.827 500.338,428.827 483.5,427.5C 499.837,427.667 516.17,427.5 532.5,427C 531.748,426.329 531.414,425.496 531.5,424.5 Z"/></g>
<g><path style="opacity:1" fill="#505050" d="M 303.5,427.5 C 318.991,428.496 334.658,428.83 350.5,428.5C 334.662,429.827 318.662,429.827 302.5,428.5C 302.624,427.893 302.957,427.56 303.5,427.5 Z"/></g>
<g><path style="opacity:0.404" fill="#ababab" d="M 23.5,429.5 C 24.9313,430.78 25.5979,432.447 25.5,434.5C 24.0687,433.22 23.4021,431.553 23.5,429.5 Z"/></g>
<g><path style="opacity:1" fill="#7c7c7c" d="M 36.5,456.5 C 38.0481,456.821 38.7148,457.821 38.5,459.5C 37.5987,458.71 36.9321,457.71 36.5,456.5 Z"/></g>
<g><path style="opacity:0.29" fill="#b1b1b1" d="M 580.5,456.5 C 580.573,458.027 579.906,459.027 578.5,459.5C 578.427,457.973 579.094,456.973 580.5,456.5 Z"/></g>
<g><path style="opacity:1" fill="#858585" d="M 40.5,463.5 C 42.0481,463.821 42.7148,464.821 42.5,466.5C 41.5987,465.71 40.9321,464.71 40.5,463.5 Z"/></g>
<g><path style="opacity:0.239" fill="#b8b8b8" d="M 576.5,463.5 C 576.573,465.027 575.906,466.027 574.5,466.5C 574.427,464.973 575.094,463.973 576.5,463.5 Z"/></g>
<g><path style="opacity:0.961" fill="#8c8c8c" d="M 43.5,468.5 C 45.4456,469.035 46.4456,470.368 46.5,472.5C 45.0256,471.564 44.0256,470.23 43.5,468.5 Z"/></g>
<g><path style="opacity:0.239" fill="#b5b5b5" d="M 571.5,471.5 C 571.573,473.027 570.906,474.027 569.5,474.5C 569.427,472.973 570.094,471.973 571.5,471.5 Z"/></g>
<g><path style="opacity:0.102" fill="#b9b9b9" d="M 569.5,474.5 C 569.573,476.027 568.906,477.027 567.5,477.5C 567.427,475.973 568.094,474.973 569.5,474.5 Z"/></g>
<g><path style="opacity:0.239" fill="#b3b3b3" d="M 567.5,477.5 C 567.573,479.027 566.906,480.027 565.5,480.5C 565.427,478.973 566.094,477.973 567.5,477.5 Z"/></g>
<g><path style="opacity:0.075" fill="#bbbbbb" d="M 565.5,480.5 C 565.573,482.027 564.906,483.027 563.5,483.5C 563.427,481.973 564.094,480.973 565.5,480.5 Z"/></g>
<g><path style="opacity:0.976" fill="#919191" d="M 53.5,483.5 C 55.4456,484.035 56.4456,485.368 56.5,487.5C 55.0256,486.564 54.0256,485.23 53.5,483.5 Z"/></g>
<g><path style="opacity:1" fill="#898989" d="M 56.5,487.5 C 58.4456,488.035 59.4456,489.368 59.5,491.5C 58.0256,490.564 57.0256,489.23 56.5,487.5 Z"/></g>
<g><path style="opacity:0.09" fill="#bbbbbb" d="M 560.5,487.5 C 560.573,489.027 559.906,490.027 558.5,490.5C 558.427,488.973 559.094,487.973 560.5,487.5 Z"/></g>
<g><path style="opacity:0.09" fill="#bababa" d="M 557.5,491.5 C 557.573,493.027 556.906,494.027 555.5,494.5C 555.427,492.973 556.094,491.973 557.5,491.5 Z"/></g>
<g><path style="opacity:0.761" fill="#8f8f8f" d="M 59.5,491.5 C 61.4456,492.035 62.4456,493.368 62.5,495.5C 61.0256,494.564 60.0256,493.23 59.5,491.5 Z"/></g>
<g><path style="opacity:0.051" fill="#c4c4c4" d="M 554.5,495.5 C 554.573,497.027 553.906,498.027 552.5,498.5C 552.427,496.973 553.094,495.973 554.5,495.5 Z"/></g>
<g><path style="opacity:0.733" fill="#919191" d="M 62.5,495.5 C 64.4456,496.035 65.4456,497.368 65.5,499.5C 64.0256,498.564 63.0256,497.23 62.5,495.5 Z"/></g>
<g><path style="opacity:0.569" fill="#a3a3a3" d="M 65.5,499.5 C 67.5311,500.539 68.8645,502.205 69.5,504.5C 67.457,503.421 66.1237,501.754 65.5,499.5 Z"/></g>
<g><path style="opacity:0.153" fill="#b4b4b4" d="M 545.5,506.5 C 544.92,508.749 543.587,510.415 541.5,511.5C 542.08,509.251 543.413,507.585 545.5,506.5 Z"/></g>
<g><path style="opacity:1" fill="#787878" d="M 73.5,509.5 C 76.179,509.525 77.5123,510.858 77.5,513.5C 75.8333,512.5 74.5,511.167 73.5,509.5 Z"/></g>
<g><path style="opacity:0.063" fill="#c2c2c2" d="M 538.5,514.5 C 538.5,516.5 537.5,517.5 535.5,517.5C 536.167,516.167 537.167,515.167 538.5,514.5 Z"/></g>
<g><path style="opacity:0.62" fill="#9c9c9c" d="M 79.5,515.5 C 82.5203,517.523 84.8536,520.19 86.5,523.5C 83.4503,521.451 81.117,518.784 79.5,515.5 Z"/></g>
<g><path style="opacity:0.012" fill="#c1c1c1" d="M 535.5,517.5 C 535.573,519.027 534.906,520.027 533.5,520.5C 533.427,518.973 534.094,517.973 535.5,517.5 Z"/></g>
<g><path style="opacity:0.784" fill="#a1a1a1" d="M 86.5,523.5 C 91.774,527.105 96.4407,531.438 100.5,536.5C 95.226,532.895 90.5593,528.562 86.5,523.5 Z"/></g>
<g><path style="opacity:0.075" fill="#c0c0c0" d="M 518.5,535.5 C 518.027,536.906 517.027,537.573 515.5,537.5C 515.973,536.094 516.973,535.427 518.5,535.5 Z"/></g>
<g><path style="opacity:0.063" fill="#bdbdbd" d="M 100.5,536.5 C 101.833,537.167 102.833,538.167 103.5,539.5C 101.5,539.5 100.5,538.5 100.5,536.5 Z"/></g>
<g><path style="opacity:0.925" fill="#909090" d="M 103.5,539.5 C 106.427,540.757 108.761,542.757 110.5,545.5C 107.573,544.243 105.239,542.243 103.5,539.5 Z"/></g>
<g><path style="opacity:0.09" fill="#bfbfbf" d="M 509.5,543.5 C 508.738,545.262 507.404,546.262 505.5,546.5C 506.262,544.738 507.596,543.738 509.5,543.5 Z"/></g>
<g><path style="opacity:0.937" fill="#939393" d="M 110.5,545.5 C 113.089,546.419 115.089,548.086 116.5,550.5C 113.911,549.581 111.911,547.914 110.5,545.5 Z"/></g>
<g><path style="opacity:0.91" fill="#949494" d="M 116.5,550.5 C 118.749,551.08 120.415,552.413 121.5,554.5C 119.251,553.92 117.585,552.587 116.5,550.5 Z"/></g>
<g><path style="opacity:0.051" fill="#c8c8c8" d="M 502.5,549.5 C 502.027,550.906 501.027,551.573 499.5,551.5C 499.973,550.094 500.973,549.427 502.5,549.5 Z"/></g>
<g><path style="opacity:0.051" fill="#cacaca" d="M 497.5,553.5 C 497.027,554.906 496.027,555.573 494.5,555.5C 494.973,554.094 495.973,553.427 497.5,553.5 Z"/></g>
<g><path style="opacity:0.58" fill="#a3a3a3" d="M 121.5,554.5 C 123.749,555.08 125.415,556.413 126.5,558.5C 124.251,557.92 122.585,556.587 121.5,554.5 Z"/></g>
<g><path style="opacity:0.557" fill="#9b9b9b" d="M 126.5,558.5 C 128.027,558.427 129.027,559.094 129.5,560.5C 127.973,560.573 126.973,559.906 126.5,558.5 Z"/></g>
<g><path style="opacity:0.051" fill="#cacaca" d="M 489.5,559.5 C 489.027,560.906 488.027,561.573 486.5,561.5C 486.973,560.094 487.973,559.427 489.5,559.5 Z"/></g>
<g><path style="opacity:0.698" fill="#979797" d="M 129.5,560.5 C 131.404,560.738 132.738,561.738 133.5,563.5C 131.596,563.262 130.262,562.262 129.5,560.5 Z"/></g>
<g><path style="opacity:0.533" fill="#a2a2a2" d="M 133.5,563.5 C 135.027,563.427 136.027,564.094 136.5,565.5C 134.973,565.573 133.973,564.906 133.5,563.5 Z"/></g>
<g><path style="opacity:0.051" fill="#c8c8c8" d="M 482.5,564.5 C 482.027,565.906 481.027,566.573 479.5,566.5C 479.973,565.094 480.973,564.427 482.5,564.5 Z"/></g>
<g><path style="opacity:0.58" fill="#999999" d="M 136.5,565.5 C 138.027,565.427 139.027,566.094 139.5,567.5C 137.973,567.573 136.973,566.906 136.5,565.5 Z"/></g>
<g><path style="opacity:0.051" fill="#c5c5c5" d="M 479.5,566.5 C 479.027,567.906 478.027,568.573 476.5,568.5C 476.973,567.094 477.973,566.427 479.5,566.5 Z"/></g>
<g><path style="opacity:0.569" fill="#9a9a9a" d="M 139.5,567.5 C 141.027,567.427 142.027,568.094 142.5,569.5C 140.973,569.573 139.973,568.906 139.5,567.5 Z"/></g>
<g><path style="opacity:0.533" fill="#9d9d9d" d="M 142.5,569.5 C 144.027,569.427 145.027,570.094 145.5,571.5C 143.973,571.573 142.973,570.906 142.5,569.5 Z"/></g>
<g><path style="opacity:0.42" fill="#acacac" d="M 145.5,571.5 C 147.027,571.427 148.027,572.094 148.5,573.5C 146.973,573.573 145.973,572.906 145.5,571.5 Z"/></g>
<g><path style="opacity:0.38" fill="#aeaeae" d="M 148.5,573.5 C 150.027,573.427 151.027,574.094 151.5,575.5C 149.973,575.573 148.973,574.906 148.5,573.5 Z"/></g>
<g><path style="opacity:1" fill="#757575" d="M 153.5,576.5 C 155.989,576.241 157.656,577.241 158.5,579.5C 156.566,578.89 154.899,577.89 153.5,576.5 Z"/></g>
<g><path style="opacity:0.063" fill="#c7c7c7" d="M 463.5,576.5 C 463.027,577.906 462.027,578.573 460.5,578.5C 460.973,577.094 461.973,576.427 463.5,576.5 Z"/></g>
<g><path style="opacity:1" fill="#737373" d="M 164.5,582.5 C 166.989,582.241 168.656,583.241 169.5,585.5C 167.566,584.89 165.899,583.89 164.5,582.5 Z"/></g>
<g><path style="opacity:0.09" fill="#bebebe" d="M 454.5,581.5 C 454.027,582.906 453.027,583.573 451.5,583.5C 451.973,582.094 452.973,581.427 454.5,581.5 Z"/></g>
<g><path style="opacity:0.024" fill="#c4c4c4" d="M 445.5,586.5 C 444.486,587.674 443.153,588.34 441.5,588.5C 442.287,586.896 443.62,586.229 445.5,586.5 Z"/></g>
<g><path style="opacity:0.988" fill="#828282" d="M 177.5,589.5 C 179.698,589.12 181.365,589.787 182.5,591.5C 180.597,591.204 178.93,590.537 177.5,589.5 Z"/></g>
<g><path style="opacity:1" fill="#777777" d="M 182.5,591.5 C 184.483,591.157 185.817,591.824 186.5,593.5C 184.847,593.34 183.514,592.674 182.5,591.5 Z"/></g>
<g><path style="opacity:0.949" fill="#8b8b8b" d="M 186.5,593.5 C 188.698,593.12 190.365,593.787 191.5,595.5C 189.597,595.204 187.93,594.537 186.5,593.5 Z"/></g>
<g><path style="opacity:0.949" fill="#8c8c8c" d="M 191.5,595.5 C 193.698,595.12 195.365,595.787 196.5,597.5C 194.597,597.204 192.93,596.537 191.5,595.5 Z"/></g>
<g><path style="opacity:0.369" fill="#a2a2a2" d="M 427.5,594.5 C 426.22,595.931 424.553,596.598 422.5,596.5C 423.78,595.069 425.447,594.402 427.5,594.5 Z"/></g>
<g><path style="opacity:0.91" fill="#8e8e8e" d="M 196.5,597.5 C 198.698,597.12 200.365,597.787 201.5,599.5C 199.597,599.204 197.93,598.537 196.5,597.5 Z"/></g>
<g><path style="opacity:0.267" fill="#acacac" d="M 422.5,596.5 C 421.22,597.931 419.553,598.598 417.5,598.5C 418.78,597.069 420.447,596.402 422.5,596.5 Z"/></g>
<g><path style="opacity:0.988" fill="#7c7c7c" d="M 202.5,599.5 C 204.698,599.12 206.365,599.787 207.5,601.5C 205.597,601.204 203.93,600.537 202.5,599.5 Z"/></g>
<g><path style="opacity:0.949" fill="#878787" d="M 211.5,602.5 C 215.162,602.723 218.495,603.723 221.5,605.5C 217.838,605.277 214.505,604.277 211.5,602.5 Z"/></g>
<g><path style="opacity:0.102" fill="#b4b4b4" d="M 399.5,604.5 C 397.485,605.924 395.152,606.59 392.5,606.5C 394.515,605.076 396.848,604.41 399.5,604.5 Z"/></g>
<g><path style="opacity:0.733" fill="#8d8d8d" d="M 221.5,605.5 C 224.152,605.41 226.485,606.076 228.5,607.5C 225.848,607.59 223.515,606.924 221.5,605.5 Z"/></g>
<g><path style="opacity:0.91" fill="#888888" d="M 258.5,613.5 C 262.79,613.198 266.79,613.864 270.5,615.5C 266.295,615.283 262.295,614.617 258.5,613.5 Z"/></g>
</svg>
