<?xml version="1.0" encoding="UTF-8"?>
<!DOCTYPE svg PUBLIC "-//W3C//DTD SVG 1.1//EN" "http://www.w3.org/Graphics/SVG/1.1/DTD/svg11.dtd">
<svg xmlns="http://www.w3.org/2000/svg" version="1.1" width="421px" height="593px" style="shape-rendering:geometricPrecision; text-rendering:geometricPrecision; image-rendering:optimizeQuality; fill-rule:evenodd; clip-rule:evenodd" xmlns:xlink="http://www.w3.org/1999/xlink">
<g><path style="opacity:1" fill="#212323" d="M 374.5,151.5 C 374.302,156.75 374.969,161.75 376.5,166.5C 377.795,175.403 378.628,184.403 379,193.5C 379.346,226.505 379.846,259.505 380.5,292.5C 393.62,292.814 404.454,297.814 413,307.5C 414.552,309.768 415.385,312.268 415.5,315C 413.358,319.243 411.525,323.743 410,328.5C 406.257,332.259 401.757,333.426 396.5,332C 391.802,330.234 387.302,328.067 383,325.5C 383.759,345.646 384.592,365.813 385.5,386C 385.195,408.354 383.028,430.521 379,452.5C 373.788,479.922 361.955,503.922 343.5,524.5C 350.53,530.363 356.696,537.03 362,544.5C 368.558,556.184 366.058,565.35 354.5,572C 348.665,575.372 342.998,575.039 337.5,571C 330.269,563.858 323.269,556.525 316.5,549C 315.271,548.219 313.938,547.719 312.5,547.5C 271.095,566.225 227.762,573.225 182.5,568.5C 177.384,567.194 172.051,566.527 166.5,566.5C 148.623,564.364 131.29,560.031 114.5,553.5C 110.675,554.164 107.008,555.331 103.5,557C 95.652,562.759 87.9854,568.759 80.5,575C 72.0433,581.412 64.7099,580.412 58.5,572C 55.0267,571.193 52.86,569.027 52,565.5C 49.563,558.128 50.8964,551.461 56,545.5C 62.2551,539.241 69.0885,533.741 76.5,529C 57.1721,510.181 45.3388,487.348 41,460.5C 38.2982,444.614 37.1316,428.614 37.5,412.5C 38.6696,383.131 40.1696,353.798 42,324.5C 36.162,328.336 29.9954,331.502 23.5,334C 17.8942,335.582 13.3942,334.082 10,329.5C 8.34582,325.038 6.51249,320.705 4.5,316.5C 6.06305,310.438 9.39638,305.605 14.5,302C 23.4039,296.532 33.0706,294.032 43.5,294.5C 41.5007,265.506 39.334,236.506 37,207.5C 36.2142,192.135 36.3809,176.801 37.5,161.5C 38.889,156.731 39.5557,151.731 39.5,146.5C 39.8533,140.38 40.8533,134.38 42.5,128.5C 43.8852,127.053 43.5518,126.053 41.5,125.5C 22.0327,118.563 13.866,104.896 17,84.5C 18.4711,78.891 20.9711,73.891 24.5,69.5C 25.9063,69.0269 26.573,68.0269 26.5,66.5C 37.0266,54.266 50.3599,49.4327 66.5,52C 72.1636,53.3311 77.497,55.4977 82.5,58.5C 96.2957,46.7673 111.962,38.434 129.5,33.5C 134.165,32.9431 138.498,31.6098 142.5,29.5C 192.954,15.9631 243.288,16.7965 293.5,32C 306.607,37.0486 318.607,43.8819 329.5,52.5C 353.049,38.6828 372.882,42.6828 389,64.5C 400.992,90.1931 394.158,109.026 368.5,121C 371.586,130.929 373.586,141.096 374.5,151.5 Z"/></g>
<g><path style="opacity:1" fill="#589fa6" d="M 225.5,24.5 C 212.815,24.3451 200.149,24.6784 187.5,25.5C 194.772,23.9826 202.272,23.316 210,23.5C 215.344,23.5006 220.511,23.834 225.5,24.5 Z"/></g>
<g><path style="opacity:1" fill="#66d5e0" d="M 225.5,24.5 C 258.953,23.7786 289.953,31.9453 318.5,49C 346.325,69.449 362.825,96.949 368,131.5C 372.642,154.943 375.308,178.61 376,202.5C 376.058,243.524 376.891,284.524 378.5,325.5C 378.428,335.699 379.095,345.699 380.5,355.5C 382.798,389.796 380.631,423.796 374,457.5C 363.027,506.807 333.527,539.307 285.5,555C 251.477,564.78 216.81,568.28 181.5,565.5C 176.731,564.111 171.731,563.444 166.5,563.5C 137.612,560.385 111.279,550.551 87.5,534C 61.853,512.882 47.0197,485.716 43,452.5C 40.66,432.227 39.9933,411.893 41,391.5C 43.7778,361.555 45.6112,331.555 46.5,301.5C 45.7174,270.441 43.884,239.441 41,208.5C 37.5332,173.238 41.5332,138.905 53,105.5C 66.6872,73.4806 89.8538,51.3139 122.5,39C 143.553,31.4895 165.219,26.9895 187.5,25.5C 200.149,24.6784 212.815,24.3451 225.5,24.5 Z"/></g>
<g><path style="opacity:0.996" fill="#4d4d4e" d="M 142.5,29.5 C 138.498,31.6098 134.165,32.9431 129.5,33.5C 133.502,31.3902 137.835,30.0569 142.5,29.5 Z"/></g>
<g><path style="opacity:1" fill="#66d2dd" d="M 345.5,48.5 C 367.189,46.4198 382.023,55.4198 390,75.5C 394.521,96.476 386.688,110.143 366.5,116.5C 364.18,108.535 361.847,100.535 359.5,92.5C 365.945,83.5402 364.612,76.0402 355.5,70C 351.833,69.6667 348.167,69.3333 344.5,69C 340.686,64.3513 336.686,59.8513 332.5,55.5C 336.446,52.3617 340.779,50.0284 345.5,48.5 Z"/></g>
<g><path style="opacity:1" fill="#121717" d="M 260.5,50.5 C 303.455,49.2846 323.289,69.9512 320,112.5C 313.072,134.078 298.239,146.245 275.5,149C 248.779,153.057 229.279,143.223 217,119.5C 208.768,88.7949 219.268,66.9616 248.5,54C 252.675,53.0089 256.675,51.8422 260.5,50.5 Z"/></g>
<g><path style="opacity:1" fill="#fbfbfb" d="M 259.5,53.5 C 299.011,50.8499 318.511,69.1832 318,108.5C 313.819,126.351 302.985,138.184 285.5,144C 263.209,150.813 243.709,146.313 227,130.5C 211.156,107.166 213.323,85.666 233.5,66C 241.334,59.9151 250,55.7485 259.5,53.5 Z"/></g>
<g><path style="opacity:1" fill="#66d2dc" d="M 49.5,55.5 C 60.3298,54.1649 70.3298,56.3315 79.5,62C 73.424,67.4053 68.0907,73.4053 63.5,80C 61.0801,79.9755 58.7467,79.3088 56.5,78C 48.3667,76.4468 42.8667,79.6135 40,87.5C 39.4857,95.5152 42.9857,101.182 50.5,104.5C 47.5716,110.619 45.2382,116.952 43.5,123.5C 20.855,114.066 14.355,98.0659 24,75.5C 30.3399,65.9839 38.8399,59.3173 49.5,55.5 Z"/></g>
<g><path style="opacity:1" fill="#151a1b" d="M 130.5,55.5 C 150.375,54.0653 167.208,60.3986 181,74.5C 190.338,87.8653 193.005,102.532 189,118.5C 185.563,130.261 178.73,139.427 168.5,146C 146.747,158.605 125.081,158.605 103.5,146C 86.3981,131.697 80.2314,113.53 85,91.5C 90.7458,76.7537 100.912,66.2537 115.5,60C 120.617,58.4153 125.617,56.9153 130.5,55.5 Z"/></g>
<g><path style="opacity:1" fill="#fbfbfb" d="M 127.5,59.5 C 145.07,56.9742 160.737,61.1408 174.5,72C 185.705,83.9805 189.872,98.1471 187,114.5C 181.713,134.431 168.879,146.597 148.5,151C 126.331,156.095 108.165,149.928 94,132.5C 84.4195,115.649 84.0861,98.6495 93,81.5C 101.804,69.8492 113.304,62.5159 127.5,59.5 Z"/></g>
<g><path style="opacity:0.749" fill="#818281" d="M 26.5,66.5 C 26.573,68.0269 25.9063,69.0269 24.5,69.5C 24.427,67.9731 25.0937,66.9731 26.5,66.5 Z"/></g>
<g><path style="opacity:1" fill="#060606" d="M 236.5,87.5 C 254.045,88.2528 259.878,96.9195 254,113.5C 248.095,120.862 240.928,122.362 232.5,118C 225.656,110.044 224.822,101.544 230,92.5C 231.965,90.4497 234.132,88.783 236.5,87.5 Z"/></g>
<g><path style="opacity:1" fill="#070707" d="M 106.5,91.5 C 121.859,91.6908 128.359,99.3574 126,114.5C 121.154,124.168 113.654,127.001 103.5,123C 92.089,111.207 93.089,100.707 106.5,91.5 Z"/></g>
<g><path style="opacity:1" fill="#e1e1e1" d="M 246.5,103.5 C 251.213,103.468 252.713,105.801 251,110.5C 247.256,113.52 245.089,112.52 244.5,107.5C 244.752,105.927 245.418,104.594 246.5,103.5 Z"/></g>
<g><path style="opacity:1" fill="#dbdbdb" d="M 116.5,107.5 C 122.248,108.164 123.581,110.997 120.5,116C 115.504,116.664 113.67,114.498 115,109.5C 115.717,108.956 116.217,108.289 116.5,107.5 Z"/></g>
<g><path style="opacity:0.408" fill="#828284" d="M 41.5,125.5 C 43.5518,126.053 43.8852,127.053 42.5,128.5C 42.4431,127.391 42.1098,126.391 41.5,125.5 Z"/></g>
<g><path style="opacity:1" fill="#030404" d="M 229.5,145.5 C 229.736,148.609 229.403,151.609 228.5,154.5C 221.293,160.346 212.96,163.012 203.5,162.5C 195.996,163.672 189.996,161.338 185.5,155.5C 184.89,154.609 184.557,153.609 184.5,152.5C 185.688,143.135 191.021,137.302 200.5,135C 208.993,133.509 216.993,134.843 224.5,139C 226.79,140.777 228.457,142.944 229.5,145.5 Z"/></g>
<g><path style="opacity:1" fill="#2d2d2c" d="M 184.5,152.5 C 184.557,153.609 184.89,154.609 185.5,155.5C 175.519,156.985 170.185,162.818 169.5,173C 169.082,181.059 172.748,185.559 180.5,186.5C 188.718,184.095 197.052,182.095 205.5,180.5C 205.784,182.415 205.451,184.081 204.5,185.5C 204.38,184.414 203.713,183.747 202.5,183.5C 196.432,185.301 190.432,187.301 184.5,189.5C 183.509,193.445 183.176,197.445 183.5,201.5C 182.834,197.647 182.167,193.647 181.5,189.5C 180.509,193.445 180.176,197.445 180.5,201.5C 179.517,197.702 179.183,193.702 179.5,189.5C 173.044,188.549 168.877,184.883 167,178.5C 164.794,166.41 169.294,157.91 180.5,153C 181.793,152.51 183.127,152.343 184.5,152.5 Z"/></g>
<g><path style="opacity:1" fill="#f1cd9f" d="M 228.5,154.5 C 236.66,157.828 243.16,163.161 248,170.5C 249.552,177.23 247.385,182.396 241.5,186C 239.256,186.906 236.923,187.406 234.5,187.5C 227.994,185.917 221.661,183.751 215.5,181C 213.527,180.505 211.527,180.338 209.5,180.5C 208.167,180.5 206.833,180.5 205.5,180.5C 197.052,182.095 188.718,184.095 180.5,186.5C 172.748,185.559 169.082,181.059 169.5,173C 170.185,162.818 175.519,156.985 185.5,155.5C 189.996,161.338 195.996,163.672 203.5,162.5C 212.96,163.012 221.293,160.346 228.5,154.5 Z"/></g>
<g><path style="opacity:0.596" fill="#757575" d="M 39.5,146.5 C 39.5557,151.731 38.889,156.731 37.5,161.5C 37.4443,156.269 38.111,151.269 39.5,146.5 Z"/></g>
<g><path style="opacity:0.745" fill="#5f5f5f" d="M 374.5,151.5 C 375.889,156.269 376.556,161.269 376.5,166.5C 374.969,161.75 374.302,156.75 374.5,151.5 Z"/></g>
<g><path style="opacity:1" fill="#121414" d="M 205.5,180.5 C 206.833,180.5 208.167,180.5 209.5,180.5C 209.918,181.222 210.584,181.722 211.5,182C 210.263,182.232 209.263,182.732 208.5,183.5C 207.568,192.484 207.401,201.484 208,210.5C 213.401,219.109 219.734,219.775 227,212.5C 227.558,204.485 227.391,196.485 226.5,188.5C 227.609,188.557 228.609,188.89 229.5,189.5C 229.5,197.5 229.5,205.5 229.5,213.5C 221.549,222.727 213.549,222.727 205.5,213.5C 193.678,224.497 185.512,222.164 181,206.5C 180.506,204.866 180.34,203.199 180.5,201.5C 180.176,197.445 180.509,193.445 181.5,189.5C 182.167,193.647 182.834,197.647 183.5,201.5C 183.849,207.053 185.849,211.886 189.5,216C 195.269,217.368 199.769,215.534 203,210.5C 203.226,202.12 203.726,193.786 204.5,185.5C 205.451,184.081 205.784,182.415 205.5,180.5 Z"/></g>
<g><path style="opacity:1" fill="#f5f5f5" d="M 208.5,183.5 C 214.928,183.981 220.928,185.647 226.5,188.5C 227.391,196.485 227.558,204.485 227,212.5C 219.734,219.775 213.401,219.109 208,210.5C 207.401,201.484 207.568,192.484 208.5,183.5 Z"/></g>
<g><path style="opacity:1" fill="#f9f9f9" d="M 204.5,185.5 C 203.726,193.786 203.226,202.12 203,210.5C 199.769,215.534 195.269,217.368 189.5,216C 185.849,211.886 183.849,207.053 183.5,201.5C 183.176,197.445 183.509,193.445 184.5,189.5C 190.432,187.301 196.432,185.301 202.5,183.5C 203.713,183.747 204.38,184.414 204.5,185.5 Z"/></g>
<g><path style="opacity:1" fill="#282726" d="M 229.5,145.5 C 230.165,147.698 230.832,150.031 231.5,152.5C 240.025,155.859 246.525,161.526 251,169.5C 252.302,183.699 245.802,190.699 231.5,190.5C 231.158,189.662 230.492,189.328 229.5,189.5C 228.609,188.89 227.609,188.557 226.5,188.5C 220.928,185.647 214.928,183.981 208.5,183.5C 209.263,182.732 210.263,182.232 211.5,182C 210.584,181.722 209.918,181.222 209.5,180.5C 211.527,180.338 213.527,180.505 215.5,181C 221.661,183.751 227.994,185.917 234.5,187.5C 236.923,187.406 239.256,186.906 241.5,186C 247.385,182.396 249.552,177.23 248,170.5C 243.16,163.161 236.66,157.828 228.5,154.5C 229.403,151.609 229.736,148.609 229.5,145.5 Z"/></g>
<g><path style="opacity:1" fill="#2e595e" d="M 229.5,189.5 C 230.492,189.328 231.158,189.662 231.5,190.5C 230.833,198.167 230.167,205.833 229.5,213.5C 229.5,205.5 229.5,197.5 229.5,189.5 Z"/></g>
<g><path style="opacity:1" fill="#eecc9e" d="M 380.5,296.5 C 393.167,296.653 403.334,301.653 411,311.5C 412.606,318.404 410.44,320.071 404.5,316.5C 403.5,316.833 402.833,317.5 402.5,318.5C 407.46,320.558 408.46,323.725 405.5,328C 402.97,329.422 400.303,329.755 397.5,329C 392.221,327.027 387.221,324.527 382.5,321.5C 380.819,313.259 380.152,304.926 380.5,296.5 Z"/></g>
<g><path style="opacity:1" fill="#f0cd9e" d="M 30.5,298.5 C 34.8333,298.5 39.1667,298.5 43.5,298.5C 43.6663,305.508 43.4996,312.508 43,319.5C 35.8421,325.495 27.6754,329.495 18.5,331.5C 13.6053,330.542 11.9387,327.709 13.5,323C 17.5084,322.51 18.1751,321.01 15.5,318.5C 9.51025,322.017 7.34359,320.35 9,313.5C 14.3928,305.893 21.5595,300.893 30.5,298.5 Z"/></g>
<g><path style="opacity:1" fill="#4e959c" d="M 378.5,325.5 C 379.905,335.301 380.572,345.301 380.5,355.5C 379.095,345.699 378.428,335.699 378.5,325.5 Z"/></g>
<g><path style="opacity:1" fill="#efcd9e" d="M 338.5,527.5 C 348.449,532.617 355.949,540.284 361,550.5C 362.592,556.383 361.259,561.383 357,565.5C 355.112,560.055 352.445,555.055 349,550.5C 348.667,550.833 348.333,551.167 348,551.5C 350.169,556.04 352.003,560.874 353.5,566C 353.646,568.188 352.646,569.521 350.5,570C 347.036,570.817 343.702,570.483 340.5,569C 332.615,560.737 324.615,552.57 316.5,544.5C 324.447,539.543 331.781,533.877 338.5,527.5 Z"/></g>
<g><path style="opacity:1" fill="#efcc9e" d="M 77.5,531.5 C 78.552,531.351 79.552,531.517 80.5,532C 89.3188,538.912 98.6522,545.079 108.5,550.5C 103.849,552.491 99.5157,554.991 95.5,558C 88.7236,564.886 81.0569,570.553 72.5,575C 66.9123,576.859 63.2456,575.026 61.5,569.5C 62.8871,565.058 65.0538,561.058 68,557.5C 68.6667,556.5 68.6667,555.5 68,554.5C 67.3333,553.167 66.6667,553.167 66,554.5C 62.9155,559 60.0821,563.667 57.5,568.5C 52.3605,562.334 52.1938,556.001 57,549.5C 63.6243,543.129 70.4576,537.129 77.5,531.5 Z"/></g>
<g><path style="opacity:1" fill="#52969d" d="M 166.5,563.5 C 171.731,563.444 176.731,564.111 181.5,565.5C 176.269,565.556 171.269,564.889 166.5,563.5 Z"/></g>
<g><path style="opacity:0.898" fill="#555555" d="M 166.5,566.5 C 172.051,566.527 177.384,567.194 182.5,568.5C 176.931,568.624 171.598,567.957 166.5,566.5 Z"/></g>
</svg>
