<svg version="1.1" id="Layer_1" xmlns="http://www.w3.org/2000/svg" xmlns:xlink="http://www.w3.org/1999/xlink" x="0px" y="0px"
	 width="100%" viewBox="0 0 193 261" enable-background="new 0 0 193 261" xml:space="preserve">
<path fill="#FCFCFC" opacity="1.000000" stroke="none" 
	d="
M194.000000,140.000000 
	C194.000000,180.603943 194.000000,221.207886 194.000000,262.000000 
	C140.312592,262.000000 86.624954,262.000000 32.711292,261.586426 
	C34.279629,260.557526 36.073990,259.942169 37.988419,259.358154 
	C38.410412,259.098175 38.712341,258.806854 39.363651,258.235901 
	C40.016624,256.981201 40.320221,256.006134 40.935360,255.160446 
	C42.656807,253.906174 44.066711,252.522537 45.429718,251.569641 
	C46.275665,251.720169 47.168510,251.440002 48.383148,251.121887 
	C49.243980,250.761795 49.783028,250.439682 50.716568,250.126923 
	C52.877094,250.430222 54.723961,250.485931 56.397049,251.053741 
	C82.145309,259.792145 108.183960,260.215027 133.744522,251.462540 
	C142.978836,248.300507 149.206894,246.997787 155.111694,256.267792 
	C158.108688,260.972839 162.078323,260.672943 166.354065,257.482147 
	C170.652374,254.274506 171.600739,250.560135 168.506088,245.800919 
	C166.205307,242.262604 163.080414,239.260193 160.439987,236.157059 
	C182.402344,208.822235 179.546051,176.596878 177.977463,144.412781 
	C178.880280,144.790024 179.483795,145.033127 180.080093,145.292755 
	C187.048172,148.326920 187.749161,148.104004 191.987808,141.827759 
	C192.480484,141.098251 193.320831,140.603561 194.000000,140.000000 
z"/>
<path fill="#FDFDFD" opacity="1.000000" stroke="none" 
	d="
M101.000000,1.000000 
	C131.940933,1.000000 162.881851,1.000000 194.000000,1.000000 
	C194.000000,46.354073 194.000000,91.708382 193.637573,137.543274 
	C190.521408,130.797653 184.228348,129.325302 176.630020,128.489441 
	C176.630020,122.300804 176.703873,116.192474 176.616394,110.086472 
	C176.335648,90.488655 176.764175,70.840965 172.299118,51.532471 
	C172.026352,50.352921 173.147629,48.180267 174.259262,47.470566 
	C178.466553,44.784504 181.916763,41.634872 183.125229,36.610104 
	C185.004837,28.794832 182.055862,22.516178 176.333710,17.521669 
	C170.526382,12.452808 163.733551,11.822392 156.809067,14.951351 
	C154.089340,16.180311 152.297104,16.090334 149.805862,14.255619 
	C140.638046,7.503855 130.007629,4.389874 118.857773,2.931655 
	C112.922493,2.155417 106.953674,1.635573 101.000000,1.000000 
z"/>
<path fill="#FDFDFD" opacity="1.000000" stroke="none" 
	d="
M1.000000,141.000000 
	C1.000000,94.421875 1.000000,47.843746 1.000000,1.000000 
	C31.020372,1.000000 61.041527,1.000000 91.362450,1.391145 
	C87.869965,2.178858 84.056053,2.431373 80.289345,2.997815 
	C66.572701,5.060544 53.194912,8.297728 41.830658,16.753260 
	C38.943085,18.901752 36.810703,19.199118 33.506527,17.939125 
	C23.358160,14.069218 12.958241,18.938633 8.600451,29.182148 
	C4.634141,38.505444 7.857842,45.809883 18.376078,51.362946 
	C18.657478,51.511509 18.868843,51.792728 19.409801,52.279007 
	C13.696268,77.571709 18.944647,103.013931 19.866669,128.547531 
	C17.226543,129.060654 14.855497,129.456116 12.515640,129.988632 
	C5.865993,131.501984 2.276484,135.194763 1.538243,141.002075 
	C1.358826,141.003143 1.000000,141.000000 1.000000,141.000000 
z"/>
<path fill="#0F1313" opacity="1.000000" stroke="none" 
	d="
M1.717657,141.001007 
	C2.276484,135.194763 5.865993,131.501984 12.515640,129.988632 
	C14.855497,129.456116 17.226543,129.060654 19.866669,128.547531 
	C18.944647,103.013931 13.696268,77.571709 19.409801,52.279007 
	C18.868843,51.792728 18.657478,51.511509 18.376078,51.362946 
	C7.857842,45.809883 4.634141,38.505444 8.600451,29.182148 
	C12.958241,18.938633 23.358160,14.069218 33.506527,17.939125 
	C36.810703,19.199118 38.943085,18.901752 41.830658,16.753260 
	C53.194912,8.297728 66.572701,5.060544 80.289345,2.997815 
	C84.056053,2.431373 87.869965,2.178858 91.831108,1.391145 
	C94.700012,1.000000 97.400032,1.000000 100.550018,1.000000 
	C106.953674,1.635573 112.922493,2.155417 118.857773,2.931655 
	C130.007629,4.389874 140.638046,7.503855 149.805862,14.255619 
	C152.297104,16.090334 154.089340,16.180311 156.809067,14.951351 
	C163.733551,11.822392 170.526382,12.452808 176.333710,17.521669 
	C182.055862,22.516178 185.004837,28.794832 183.125229,36.610104 
	C181.916763,41.634872 178.466553,44.784504 174.259262,47.470566 
	C173.147629,48.180267 172.026352,50.352921 172.299118,51.532471 
	C176.764175,70.840965 176.335648,90.488655 176.616394,110.086472 
	C176.703873,116.192474 176.630020,122.300804 176.630020,128.489441 
	C184.228348,129.325302 190.521408,130.797653 193.637573,138.011932 
	C194.000000,138.444443 194.000000,138.888901 194.000000,139.666672 
	C193.320831,140.603561 192.480484,141.098251 191.987808,141.827759 
	C187.749161,148.104004 187.048172,148.326920 180.080093,145.292755 
	C179.483795,145.033127 178.880280,144.790024 177.977463,144.412781 
	C179.546051,176.596878 182.402344,208.822235 160.439987,236.157059 
	C163.080414,239.260193 166.205307,242.262604 168.506088,245.800919 
	C171.600739,250.560135 170.652374,254.274506 166.354065,257.482147 
	C162.078323,260.672943 158.108688,260.972839 155.111694,256.267792 
	C149.206894,246.997787 142.978836,248.300507 133.744522,251.462540 
	C108.183960,260.215027 82.145309,259.792145 56.397049,251.053741 
	C54.723961,250.485931 52.877094,250.430222 50.330734,250.084946 
	C49.035309,250.024109 48.520206,250.014618 47.850845,249.846710 
	C47.696583,249.688293 47.373024,249.386841 47.647629,249.208832 
	C47.990841,248.435226 48.313564,247.447006 48.090271,247.302475 
	C44.239769,244.810593 40.321991,242.422653 36.447968,240.029861 
	C25.554850,247.423737 23.905180,249.997482 26.540176,255.804657 
	C27.948683,253.793839 29.289747,251.879318 30.630810,249.964783 
	C31.046732,250.177750 31.462652,250.390717 31.878574,250.603683 
	C31.330315,251.836975 30.645588,253.030563 30.271992,254.314682 
	C29.894472,255.612305 29.825245,256.999603 29.620964,258.347595 
	C31.005222,258.551666 32.385883,258.785980 33.774761,258.951202 
	C35.134933,259.113037 36.503479,259.204498 37.868351,259.326813 
	C36.073990,259.942169 34.279629,260.557526 32.242634,261.586426 
	C31.555555,262.000000 31.111111,262.000000 30.220823,261.674500 
	C26.071821,258.049744 20.348421,255.159531 23.949797,249.080185 
	C26.520960,244.739899 30.755899,241.385223 34.339634,237.491653 
	C27.630587,230.931274 22.931496,222.829529 20.463192,213.507156 
	C16.935568,200.183975 16.527777,186.617661 17.571953,172.945587 
	C18.302483,163.380310 18.874643,153.802933 19.548056,143.776581 
	C18.192106,144.337906 17.279009,144.630539 16.446152,145.073898 
	C8.192204,149.467651 7.840078,149.399902 2.609993,142.174072 
	C2.322005,141.776215 2.015526,141.391724 1.717657,141.001007 
M166.663101,40.022030 
	C160.403275,23.658127 148.695084,12.941952 132.033844,8.154154 
	C108.360580,1.351377 84.602730,2.401460 61.192883,9.598840 
	C40.055634,16.097506 26.920948,30.264145 21.876040,51.996044 
	C18.668209,65.814392 18.589161,79.714828 19.603041,93.709007 
	C21.022207,113.297173 22.994436,132.802643 21.329002,152.555908 
	C20.032003,167.939270 19.547977,183.507614 20.280050,198.918839 
	C21.434292,223.217361 33.899540,240.372498 56.916279,248.702545 
	C82.864037,258.093414 109.218613,257.777954 135.221085,248.829010 
	C154.065094,242.343719 167.029861,229.386292 171.791763,209.786682 
	C174.442093,198.878174 176.652328,187.501740 176.562180,176.356400 
	C176.296936,143.555923 175.296661,110.737358 173.497421,77.985573 
	C172.811584,65.500862 169.172409,53.178387 166.663101,40.022030 
M166.549728,25.724405 
	C167.389359,27.619543 169.462830,30.174103 168.861557,31.299147 
	C165.754852,37.112091 170.254547,41.205086 170.903748,46.249084 
	C180.884842,41.787392 184.027039,33.487686 179.444534,24.892910 
	C174.476608,15.575242 164.413940,12.846252 155.392548,18.370113 
	C158.097015,21.890026 160.714050,25.544546 166.549728,25.724405 
M12.188133,44.191055 
	C14.562953,46.046246 16.937773,47.901432 19.824835,50.156780 
	C21.080944,46.316521 21.982176,43.561211 22.883410,40.805897 
	C22.297922,40.870007 21.712433,40.934116 21.126944,40.998226 
	C20.507862,38.101353 18.929497,34.996151 19.502394,32.358143 
	C20.292604,28.719467 23.796501,28.418922 27.244146,29.139496 
	C28.078297,29.313837 29.395884,28.718166 30.025375,28.042580 
	C32.000267,25.923063 33.753025,23.596569 35.625008,21.309700 
	C27.631702,17.337881 20.019028,18.431725 14.456344,24.186075 
	C8.761599,30.077034 7.857359,36.591362 12.188133,44.191055 
M154.673050,252.829117 
	C157.294952,255.165237 159.292236,259.229065 164.146561,256.293671 
	C163.131607,253.770309 162.203369,251.462540 161.275131,249.154755 
	C161.678741,248.922729 162.082352,248.690704 162.485962,248.458664 
	C163.779083,250.430023 165.072189,252.401367 166.387558,254.406616 
	C169.426804,249.281296 166.325668,243.442505 157.901657,238.244431 
	C154.636719,240.681122 151.371765,243.117828 148.105606,245.555435 
	C150.198425,247.878983 152.195496,250.096222 154.673050,252.829117 
M5.152765,136.797592 
	C4.697642,138.058365 4.242518,139.319138 3.689130,140.852127 
	C5.599684,140.651031 6.745762,140.530396 8.954933,140.297867 
	C7.442935,142.116730 6.622774,143.103348 5.459132,144.503159 
	C10.893477,147.664200 14.845437,143.974197 17.606836,141.537689 
	C19.765543,139.632965 19.549456,135.036804 20.388573,131.636536 
	C19.792688,131.169937 19.196804,130.703354 18.600920,130.236755 
	C14.277127,132.229660 9.953334,134.222565 5.152765,136.797592 
M181.785614,131.296295 
	C180.342102,131.176559 178.898605,131.056808 177.459274,130.937408 
	C176.613327,140.301987 177.468750,141.254364 182.721390,144.242996 
	C188.625549,147.602341 188.667175,141.901367 190.532547,139.575775 
	C191.063065,138.914383 189.388077,135.760361 188.027908,134.503021 
	C186.575012,133.159943 184.298386,132.707962 181.785614,131.296295 
z"/>
<path fill="#FDFDFD" opacity="1.000000" stroke="none" 
	d="
M1.538241,141.002075 
	C2.015526,141.391724 2.322005,141.776215 2.609993,142.174072 
	C7.840078,149.399902 8.192204,149.467651 16.446152,145.073898 
	C17.279009,144.630539 18.192106,144.337906 19.548056,143.776581 
	C18.874643,153.802933 18.302483,163.380310 17.571953,172.945587 
	C16.527777,186.617661 16.935568,200.183975 20.463192,213.507156 
	C22.931496,222.829529 27.630587,230.931274 34.339634,237.491653 
	C30.755899,241.385223 26.520960,244.739899 23.949797,249.080185 
	C20.348421,255.159531 26.071821,258.049744 29.887489,261.674500 
	C20.361610,262.000000 10.723221,262.000000 1.000000,262.000000 
	C1.000000,221.979141 1.000000,181.958237 1.000000,141.468658 
	C1.000000,141.000000 1.358826,141.003143 1.538241,141.002075 
z"/>
<path fill="#EFCC9D" opacity="1.000000" stroke="none" 
	d="
M37.988419,259.358154 
	C36.503479,259.204498 35.134933,259.113037 33.774761,258.951202 
	C32.385883,258.785980 31.005222,258.551666 29.620964,258.347595 
	C29.825245,256.999603 29.894472,255.612305 30.271992,254.314682 
	C30.645588,253.030563 31.330315,251.836975 31.878574,250.603683 
	C31.462652,250.390717 31.046732,250.177750 30.630810,249.964783 
	C29.289747,251.879318 27.948683,253.793839 26.540176,255.804657 
	C23.905180,249.997482 25.554850,247.423737 36.447968,240.029861 
	C40.321991,242.422653 44.239769,244.810593 48.090271,247.302475 
	C48.313564,247.447006 47.990841,248.435226 47.345802,249.374115 
	C46.338459,250.191238 45.907539,250.665070 45.476616,251.138916 
	C44.066711,252.522537 42.656807,253.906174 40.524845,255.177643 
	C38.844532,256.151550 37.886276,257.237640 36.928017,258.323730 
	C37.623436,258.387695 38.318855,258.451630 39.014275,258.515564 
	C38.712341,258.806854 38.410412,259.098175 37.988419,259.358154 
z"/>
<path fill="#0F1313" opacity="1.000000" stroke="none" 
	d="
M39.363655,258.235901 
	C38.318855,258.451630 37.623436,258.387695 36.928017,258.323730 
	C37.886276,257.237640 38.844532,256.151550 40.213303,255.048279 
	C40.320221,256.006134 40.016624,256.981201 39.363655,258.235901 
z"/>
<path fill="#0F1313" opacity="1.000000" stroke="none" 
	d="
M45.429718,251.569641 
	C45.907539,250.665070 46.338459,250.191238 47.071201,249.552124 
	C47.373024,249.386841 47.696583,249.688293 47.856834,250.135696 
	C48.031845,250.775360 48.046604,250.967606 48.061359,251.159836 
	C47.168510,251.440002 46.275665,251.720169 45.429718,251.569641 
z"/>
<path fill="#141311" opacity="1.000000" stroke="none" 
	d="
M48.383148,251.121887 
	C48.046604,250.967606 48.031845,250.775360 48.011093,250.294113 
	C48.520206,250.014618 49.035309,250.024109 49.936241,250.075577 
	C49.783028,250.439682 49.243980,250.761795 48.383148,251.121887 
z"/>
<path fill="#6AD6E4" opacity="1.000000" stroke="none" 
	d="
M166.771149,40.402000 
	C169.172409,53.178387 172.811584,65.500862 173.497421,77.985573 
	C175.296661,110.737358 176.296936,143.555923 176.562180,176.356400 
	C176.652328,187.501740 174.442093,198.878174 171.791763,209.786682 
	C167.029861,229.386292 154.065094,242.343719 135.221085,248.829010 
	C109.218613,257.777954 82.864037,258.093414 56.916279,248.702545 
	C33.899540,240.372498 21.434292,223.217361 20.280050,198.918839 
	C19.547977,183.507614 20.032003,167.939270 21.329002,152.555908 
	C22.994436,132.802643 21.022207,113.297173 19.603041,93.709007 
	C18.589161,79.714828 18.668209,65.814392 21.876040,51.996044 
	C26.920948,30.264145 40.055634,16.097506 61.192883,9.598840 
	C84.602730,2.401460 108.360580,1.351377 132.033844,8.154154 
	C148.695084,12.941952 160.403275,23.658127 166.771149,40.402000 
M80.759956,80.256790 
	C80.759956,80.256790 80.757858,80.242691 81.129150,80.746582 
	C81.731308,80.905869 82.333466,81.065155 82.960205,81.630508 
	C82.960205,81.630508 83.115456,82.006538 82.985550,82.848244 
	C82.745903,87.528000 83.537498,92.194931 87.868904,94.446053 
	C89.717567,95.406845 92.927444,93.748497 95.518768,93.280319 
	C98.261345,94.227341 101.582161,95.552322 104.351219,94.812408 
	C108.660652,93.660904 107.645630,89.315788 107.707863,85.899071 
	C107.740509,84.106827 107.764908,82.314430 108.544571,80.745033 
	C111.993271,80.638809 114.375519,79.174820 115.644218,75.781250 
	C116.989891,72.181763 114.949677,70.072411 112.578476,68.179749 
	C110.936584,66.869202 108.984482,65.947311 107.101967,64.081200 
	C106.266029,58.132526 103.813377,55.772980 97.928322,55.255779 
	C91.882195,54.724422 87.328606,57.518219 85.145432,62.887676 
	C76.385468,66.971321 74.319252,73.104774 79.842560,79.980652 
	C80.110992,80.168251 80.408943,80.262947 80.759956,80.256790 
M106.387871,22.882437 
	C100.511719,28.813444 97.588219,35.776127 99.633163,44.129074 
	C102.785187,57.004135 113.555504,63.632786 128.292831,62.033978 
	C140.645264,60.693890 149.819473,51.435883 150.089523,40.038227 
	C150.398300,27.006042 142.396255,17.344820 129.496170,15.505460 
	C120.968292,14.289512 113.440392,16.824411 106.387871,22.882437 
M61.621456,65.052589 
	C75.109962,64.981682 85.442673,58.135731 88.126328,47.491756 
	C90.958817,36.257423 85.865387,24.934879 75.889801,20.290327 
	C64.995132,15.217854 49.759502,18.768705 42.838661,27.793568 
	C33.088959,40.507301 38.739273,63.102882 61.621456,65.052589 
z"/>
<path fill="#67D2DF" opacity="1.000000" stroke="none" 
	d="
M166.236023,25.467228 
	C160.714050,25.544546 158.097015,21.890026 155.392578,18.370083 
	C164.413940,12.846252 174.476608,15.575242 179.444534,24.892910 
	C184.027039,33.487686 180.884842,41.787392 170.903748,46.249084 
	C170.254547,41.205086 165.754852,37.112091 168.861557,31.299147 
	C169.462830,30.174103 167.389359,27.619543 166.236023,25.467228 
z"/>
<path fill="#67D1DE" opacity="1.000000" stroke="none" 
	d="
M11.976947,43.880325 
	C7.857359,36.591362 8.761599,30.077034 14.456344,24.186075 
	C20.019028,18.431725 27.631702,17.337881 35.625008,21.309700 
	C33.753025,23.596569 32.000267,25.923063 30.025375,28.042580 
	C29.395884,28.718166 28.078297,29.313837 27.244146,29.139496 
	C23.796501,28.418922 20.292604,28.719467 19.502394,32.358143 
	C18.929497,34.996151 20.507862,38.101353 21.126944,40.998226 
	C21.712433,40.934116 22.297922,40.870007 22.883410,40.805897 
	C21.982176,43.561211 21.080944,46.316521 19.824835,50.156780 
	C16.937773,47.901432 14.562953,46.046246 11.976947,43.880325 
z"/>
<path fill="#EECB9D" opacity="1.000000" stroke="none" 
	d="
M154.432800,252.571289 
	C152.195496,250.096222 150.198425,247.878983 148.105606,245.555435 
	C151.371765,243.117828 154.636719,240.681122 157.904190,238.246246 
	C166.325668,243.442505 169.426804,249.281296 166.387558,254.406616 
	C165.072189,252.401367 163.779083,250.430023 162.485962,248.458664 
	C162.082352,248.690704 161.678741,248.922729 161.275131,249.154755 
	C162.203369,251.462540 163.131607,253.770309 164.146561,256.293671 
	C159.292236,259.229065 157.294952,255.165237 154.432800,252.571289 
z"/>
<path fill="#ECC99B" opacity="1.000000" stroke="none" 
	d="
M5.391153,136.506531 
	C9.953334,134.222565 14.277127,132.229660 18.600920,130.236755 
	C19.196804,130.703354 19.792688,131.169937 20.388573,131.636536 
	C19.549456,135.036804 19.765543,139.632965 17.606836,141.537689 
	C14.845437,143.974197 10.893477,147.664200 5.459132,144.503159 
	C6.622774,143.103348 7.442935,142.116730 8.954933,140.297867 
	C6.745762,140.530396 5.599684,140.651031 3.689130,140.852127 
	C4.242518,139.319138 4.697642,138.058365 5.391153,136.506531 
z"/>
<path fill="#EAC89A" opacity="1.000000" stroke="none" 
	d="
M182.083466,131.581650 
	C184.298386,132.707962 186.575012,133.159943 188.027908,134.503021 
	C189.388077,135.760361 191.063065,138.914383 190.532547,139.575775 
	C188.667175,141.901367 188.625549,147.602341 182.721390,144.242996 
	C177.468750,141.254364 176.613327,140.301987 177.459274,130.937408 
	C178.898605,131.056808 180.342102,131.176559 182.083466,131.581650 
z"/>
<path fill="#EECB9D" opacity="1.000000" stroke="none" 
	d="
M107.170990,64.851761 
	C108.984482,65.947311 110.936584,66.869202 112.578476,68.179749 
	C114.949677,70.072411 116.989891,72.181763 115.644218,75.781250 
	C114.375519,79.174820 111.993271,80.638809 107.996773,80.609711 
	C107.306953,80.289940 107.144958,80.125137 106.905235,79.634003 
	C102.603729,76.788460 98.204758,75.667725 93.209213,76.856842 
	C89.311310,77.784683 85.272949,78.122475 81.284866,78.733292 
	C81.272728,78.744118 81.266945,78.718681 81.156807,78.472038 
	C80.740051,78.041496 80.433441,77.857597 80.025002,77.309937 
	C78.033752,71.126907 78.937630,69.012909 85.364227,65.140640 
	C89.623047,66.200150 93.522888,67.906136 97.428513,67.919472 
	C100.672470,67.930542 103.923241,65.950035 107.170990,64.851761 
z"/>
<path fill="#0D1213" opacity="1.000000" stroke="none" 
	d="
M106.643982,22.629868 
	C113.440392,16.824411 120.968292,14.289512 129.496170,15.505460 
	C142.396255,17.344820 150.398300,27.006042 150.089523,40.038227 
	C149.819473,51.435883 140.645264,60.693890 128.292831,62.033978 
	C113.555504,63.632786 102.785187,57.004135 99.633163,44.129074 
	C97.588219,35.776127 100.511719,28.813444 106.643982,22.629868 
M142.336105,24.213230 
	C132.383331,14.980289 117.459145,15.094196 107.754105,24.704758 
	C102.507980,29.899805 99.816231,36.207119 101.739174,43.703571 
	C104.086632,52.855000 110.199364,58.497677 119.402344,59.748077 
	C129.661057,61.141918 139.217529,59.033688 145.083588,49.405075 
	C150.296631,40.848316 148.362610,32.536972 142.336105,24.213230 
z"/>
<path fill="#111819" opacity="1.000000" stroke="none" 
	d="
M61.172092,65.044785 
	C38.739273,63.102882 33.088959,40.507301 42.838661,27.793568 
	C49.759502,18.768705 64.995132,15.217854 75.889801,20.290327 
	C85.865387,24.934879 90.958817,36.257423 88.126328,47.491756 
	C85.442673,58.135731 75.109962,64.981682 61.172092,65.044785 
M64.297577,62.898548 
	C66.415962,62.532314 68.594414,62.369747 70.642677,61.765720 
	C81.335762,58.612370 87.850555,49.550186 86.751930,39.541317 
	C85.548004,28.573084 77.664703,20.921139 66.775505,20.151165 
	C54.430973,19.278280 43.576763,26.040548 41.068146,36.167072 
	C37.419586,50.895218 47.173824,62.571228 64.297577,62.898548 
z"/>
<path fill="#040505" opacity="1.000000" stroke="none" 
	d="
M107.136475,64.466476 
	C103.923241,65.950035 100.672470,67.930542 97.428513,67.919472 
	C93.522888,67.906136 89.623047,66.200150 85.466110,64.840439 
	C85.417038,63.862534 85.622559,63.271133 85.828079,62.679737 
	C87.328606,57.518219 91.882195,54.724422 97.928322,55.255779 
	C103.813377,55.772980 106.266029,58.132526 107.136475,64.466476 
z"/>
<path fill="#0F1414" opacity="1.000000" stroke="none" 
	d="
M106.962982,79.979965 
	C107.144958,80.125137 107.306953,80.289940 107.621002,80.498245 
	C107.764908,82.314430 107.740509,84.106827 107.707863,85.899071 
	C107.645630,89.315788 108.660652,93.660904 104.351219,94.812408 
	C101.582161,95.552322 98.261345,94.227341 95.518768,93.280319 
	C92.927444,93.748497 89.717567,95.406845 87.868904,94.446053 
	C83.537498,92.194931 82.745903,87.528000 83.383621,82.417404 
	C84.225937,81.988907 84.670197,81.991257 85.170929,82.397278 
	C85.532860,84.903122 85.366333,87.247925 86.284966,89.034874 
	C87.099770,90.619858 89.120018,91.585136 90.608139,92.823975 
	C91.768074,91.094208 93.432686,89.505623 93.965660,87.600456 
	C94.703018,84.964752 94.588501,82.090736 95.084084,79.001648 
	C96.089539,78.548668 96.849701,78.412811 97.558052,78.719086 
	C97.370178,82.461479 96.713654,85.858368 97.301476,89.024216 
	C97.631798,90.803299 100.017838,92.200684 101.477730,93.770027 
	C102.827553,92.178757 105.046448,90.726799 105.328964,88.964424 
	C105.783142,86.131210 104.957893,83.092888 105.053864,80.100739 
	C105.943985,80.033485 106.453484,80.006729 106.962982,79.979965 
z"/>
<path fill="#1C1A1F" opacity="1.000000" stroke="none" 
	d="
M106.905235,79.634003 
	C106.453484,80.006729 105.943985,80.033485 104.712662,80.077713 
	C101.863838,79.489113 99.736855,78.883034 97.609863,78.276947 
	C96.849701,78.412811 96.089539,78.548668 94.731461,78.827354 
	C91.127182,79.977989 88.120819,80.985794 85.114449,81.993599 
	C84.670197,81.991257 84.225937,81.988907 83.448570,81.996552 
	C83.115456,82.006538 82.960205,81.630508 82.796066,81.130379 
	C82.007240,80.501060 81.382553,80.371880 80.757858,80.242691 
	C80.757858,80.242691 80.759956,80.256790 80.889221,79.875168 
	C81.111328,79.236526 81.204163,78.979492 81.297005,78.722466 
	C85.272949,78.122475 89.311310,77.784683 93.209213,76.856842 
	C98.204758,75.667725 102.603729,76.788460 106.905235,79.634003 
z"/>
<path fill="#221C1E" opacity="1.000000" stroke="none" 
	d="
M85.486755,62.783707 
	C85.622559,63.271133 85.417038,63.862534 85.109634,64.754135 
	C78.937630,69.012909 78.033752,71.126907 79.985939,77.639297 
	C80.034302,78.553055 80.019897,78.773682 79.869614,79.153473 
	C79.733734,79.312630 79.496170,79.657227 79.496170,79.657227 
	C74.319252,73.104774 76.385468,66.971321 85.486755,62.783707 
z"/>
<path fill="#221C1E" opacity="1.000000" stroke="none" 
	d="
M80.943504,80.494644 
	C81.382553,80.371880 82.007240,80.501060 82.783783,80.927338 
	C82.333466,81.065155 81.731308,80.905869 80.943504,80.494644 
z"/>
<path fill="#221C1E" opacity="1.000000" stroke="none" 
	d="
M81.284866,78.733292 
	C81.204163,78.979492 81.111328,79.236526 80.877457,79.879150 
	C80.408943,80.262947 80.110992,80.168251 79.669365,79.818939 
	C79.496170,79.657227 79.733734,79.312630 80.190262,79.108978 
	C80.853500,78.843109 81.060219,78.780899 81.266945,78.718681 
	C81.266945,78.718681 81.272728,78.744118 81.284866,78.733292 
z"/>
<path fill="#1C1A1F" opacity="1.000000" stroke="none" 
	d="
M81.156807,78.472038 
	C81.060219,78.780899 80.853500,78.843109 80.326141,78.949821 
	C80.019897,78.773682 80.034302,78.553055 80.087761,78.003059 
	C80.433441,77.857597 80.740051,78.041496 81.156807,78.472038 
z"/>
<path fill="#FBFBFB" opacity="1.000000" stroke="none" 
	d="
M142.579361,24.484581 
	C148.362610,32.536972 150.296631,40.848316 145.083588,49.405075 
	C139.217529,59.033688 129.661057,61.141918 119.402344,59.748077 
	C110.199364,58.497677 104.086632,52.855000 101.739174,43.703571 
	C99.816231,36.207119 102.507980,29.899805 107.754105,24.704758 
	C117.459145,15.094196 132.383331,14.980289 142.579361,24.484581 
M105.289276,43.709198 
	C105.528214,44.141998 105.746117,44.588066 106.009399,45.005516 
	C108.205132,48.486965 111.414803,49.542225 114.921822,47.670979 
	C118.264595,45.887363 119.627266,42.660328 118.610977,38.829868 
	C117.661919,35.252811 115.240501,32.824589 111.532829,33.134903 
	C107.450089,33.476612 105.145798,36.242756 104.939217,40.468189 
	C104.899162,41.287605 105.012489,42.114521 105.289276,43.709198 
z"/>
<path fill="#FAFAFA" opacity="1.000000" stroke="none" 
	d="
M63.858627,62.910412 
	C47.173824,62.571228 37.419586,50.895218 41.068146,36.167072 
	C43.576763,26.040548 54.430973,19.278280 66.775505,20.151165 
	C77.664703,20.921139 85.548004,28.573084 86.751930,39.541317 
	C87.850555,49.550186 81.335762,58.612370 70.642677,61.765720 
	C68.594414,62.369747 66.415962,62.532314 63.858627,62.910412 
M47.427486,49.134834 
	C52.513809,51.513840 56.294987,50.438190 58.077385,46.105221 
	C59.880508,41.721859 57.911068,36.490231 53.460079,35.780865 
	C51.174427,35.416595 47.731503,36.565403 46.229805,38.275703 
	C43.451149,41.440353 43.917416,45.355900 47.427486,49.134834 
z"/>
<path fill="#F0F0F0" opacity="1.000000" stroke="none" 
	d="
M97.558052,78.719086 
	C99.736855,78.883034 101.863838,79.489113 104.332039,80.118210 
	C104.957893,83.092888 105.783142,86.131210 105.328964,88.964424 
	C105.046448,90.726799 102.827553,92.178757 101.477730,93.770027 
	C100.017838,92.200684 97.631798,90.803299 97.301476,89.024216 
	C96.713654,85.858368 97.370178,82.461479 97.558052,78.719086 
z"/>
<path fill="#F1F1F1" opacity="1.000000" stroke="none" 
	d="
M85.170929,82.397278 
	C88.120819,80.985794 91.127182,79.977989 94.486176,79.144478 
	C94.588501,82.090736 94.703018,84.964752 93.965660,87.600456 
	C93.432686,89.505623 91.768074,91.094208 90.608139,92.823975 
	C89.120018,91.585136 87.099770,90.619858 86.284966,89.034874 
	C85.366333,87.247925 85.532860,84.903122 85.170929,82.397278 
z"/>
<path fill="#0A0A0A" opacity="1.000000" stroke="none" 
	d="
M105.172165,43.323586 
	C105.012489,42.114521 104.899162,41.287605 104.939217,40.468189 
	C105.145798,36.242756 107.450089,33.476612 111.532829,33.134903 
	C115.240501,32.824589 117.661919,35.252811 118.610977,38.829868 
	C119.627266,42.660328 118.264595,45.887363 114.921822,47.670979 
	C111.414803,49.542225 108.205132,48.486965 106.009399,45.005516 
	C105.746117,44.588066 105.528214,44.141998 105.172165,43.323586 
z"/>
<path fill="#0A0A0A" opacity="1.000000" stroke="none" 
	d="
M47.136101,48.904198 
	C43.917416,45.355900 43.451149,41.440353 46.229805,38.275703 
	C47.731503,36.565403 51.174427,35.416595 53.460079,35.780865 
	C57.911068,36.490231 59.880508,41.721859 58.077385,46.105221 
	C56.294987,50.438190 52.513809,51.513840 47.136101,48.904198 
z"/>
</svg>