<?xml version="1.0" encoding="UTF-8"?>
<!DOCTYPE svg PUBLIC "-//W3C//DTD SVG 1.1//EN" "http://www.w3.org/Graphics/SVG/1.1/DTD/svg11.dtd">
<svg xmlns="http://www.w3.org/2000/svg" version="1.1" width="300px" height="180px" style="shape-rendering:geometricPrecision; text-rendering:geometricPrecision; image-rendering:optimizeQuality; fill-rule:evenodd; clip-rule:evenodd" xmlns:xlink="http://www.w3.org/1999/xlink">
<g><path style="opacity:1" fill="#19b2b9" d="M 154.5,-0.5 C 157.5,-0.5 160.5,-0.5 163.5,-0.5C 164.209,0.403972 165.209,0.737305 166.5,0.5C 171.276,2.9971 176.276,5.33043 181.5,7.5C 172.695,23.1027 163.861,38.7694 155,54.5C 152.371,52.1118 149.538,50.1118 146.5,48.5C 142.891,46.02 139.224,43.52 135.5,41C 131.429,39.3695 127.429,37.8695 123.5,36.5C 126.82,35.8254 129.987,35.8254 133,36.5C 139.686,23.7808 146.853,11.4475 154.5,-0.5 Z"/></g>
<g><path style="opacity:1" fill="#1bacbb" d="M 135.5,-0.5 C 141.833,-0.5 148.167,-0.5 154.5,-0.5C 146.853,11.4475 139.686,23.7808 133,36.5C 129.987,35.8254 126.82,35.8254 123.5,36.5C 112.382,35.0304 102.048,37.197 92.5,43C 88.9574,46.0486 85.2907,48.8819 81.5,51.5C 80.314,49.8058 80.4807,48.1392 82,46.5C 86.7074,38.2509 91.5407,30.0842 96.5,22C 94.8107,22.1343 93.144,22.6343 91.5,23.5C 103.027,9.73673 117.693,1.73673 135.5,-0.5 Z"/></g>
<g><path style="opacity:1" fill="#17b8b9" d="M 166.5,0.5 C 178.002,2.32554 188.335,6.65887 197.5,13.5C 199.428,16.2554 201.928,18.5887 205,20.5C 204.975,22.9199 204.309,25.2533 203,27.5C 194.084,43.0021 184.917,58.3354 175.5,73.5C 173.321,72.2433 171.321,70.7433 169.5,69C 168.563,68.3083 167.897,68.475 167.5,69.5C 160.167,62.8333 153.167,55.8333 146.5,48.5C 149.538,50.1118 152.371,52.1118 155,54.5C 163.861,38.7694 172.695,23.1027 181.5,7.5C 176.276,5.33043 171.276,2.9971 166.5,0.5 Z"/></g>
<g><path style="opacity:1" fill="#15beb8" d="M 197.5,13.5 C 209.034,21.36 219.367,30.6933 228.5,41.5C 219.092,55.3037 210.425,69.637 202.5,84.5C 202.709,85.086 203.043,85.586 203.5,86C 202.584,86.2784 201.918,86.7784 201.5,87.5C 188.395,84.6167 177.061,78.6167 167.5,69.5C 167.897,68.475 168.563,68.3083 169.5,69C 171.321,70.7433 173.321,72.2433 175.5,73.5C 184.917,58.3354 194.084,43.0021 203,27.5C 204.309,25.2533 204.975,22.9199 205,20.5C 201.928,18.5887 199.428,16.2554 197.5,13.5 Z"/></g>
<g><path style="opacity:1" fill="#1cabbd" d="M 81.5,51.5 C 79.5409,55.4645 76.8742,58.1312 73.5,59.5C 76.8948,46.0436 82.8948,34.0436 91.5,23.5C 93.144,22.6343 94.8107,22.1343 96.5,22C 91.5407,30.0842 86.7074,38.2509 82,46.5C 80.4807,48.1392 80.314,49.8058 81.5,51.5 Z"/></g>
<g><path style="opacity:0.998" fill="#15c7bc" d="M 299.5,29.5 C 299.5,30.8333 299.5,32.1667 299.5,33.5C 298.651,35.8876 297.651,38.2209 296.5,40.5C 296.719,39.325 296.386,38.325 295.5,37.5C 293.183,39.316 291.016,41.316 289,43.5C 288.617,42.944 288.117,42.6107 287.5,42.5C 291.528,38.1407 295.528,33.8073 299.5,29.5 Z"/></g>
<g><path style="opacity:1" fill="#12cbb7" d="M 296.5,40.5 C 291.429,56.4924 282.095,69.3258 268.5,79C 265.264,80.7862 261.93,82.2862 258.5,83.5C 256.62,83.2291 255.287,83.8958 254.5,85.5C 247.454,88.242 240.121,89.5754 232.5,89.5C 229.15,89.665 225.817,89.4983 222.5,89C 228.784,88.191 234.951,87.0243 241,85.5C 246.456,75.4191 252.289,65.5858 258.5,56C 256.888,55.2797 255.388,55.4464 254,56.5C 252.509,54.9963 250.676,54.1629 248.5,54C 251.146,53.5026 253.813,53.3359 256.5,53.5C 257.833,53.5 259.167,53.5 260.5,53.5C 263.187,53.6641 265.854,53.4974 268.5,53C 270.653,52.9005 272.319,52.0672 273.5,50.5C 278.441,48.2054 283.108,45.5387 287.5,42.5C 288.117,42.6107 288.617,42.944 289,43.5C 291.016,41.316 293.183,39.316 295.5,37.5C 296.386,38.325 296.719,39.325 296.5,40.5 Z"/></g>
<g><path style="opacity:1" fill="#14c4b7" d="M 228.5,41.5 C 236.716,48.279 246.049,52.279 256.5,53.5C 253.813,53.3359 251.146,53.5026 248.5,54C 250.676,54.1629 252.509,54.9963 254,56.5C 255.388,55.4464 256.888,55.2797 258.5,56C 252.289,65.5858 246.456,75.4191 241,85.5C 234.951,87.0243 228.784,88.191 222.5,89C 225.817,89.4983 229.15,89.665 232.5,89.5C 222.158,90.8743 211.825,90.2076 201.5,87.5C 201.918,86.7784 202.584,86.2784 203.5,86C 203.043,85.586 202.709,85.086 202.5,84.5C 210.425,69.637 219.092,55.3037 228.5,41.5 Z"/></g>
<g><path style="opacity:0.851" fill="#15bdb9" d="M 273.5,50.5 C 272.319,52.0672 270.653,52.9005 268.5,53C 265.854,53.4974 263.187,53.6641 260.5,53.5C 264.736,52.5991 269.07,51.5991 273.5,50.5 Z"/></g>
<g><path style="opacity:0.043" fill="#15b7b7" d="M 258.5,83.5 C 257.486,84.6737 256.153,85.3404 254.5,85.5C 255.287,83.8958 256.62,83.2291 258.5,83.5 Z"/></g>
<g><path style="opacity:1" fill="#1bacba" d="M 92.5,90.5 C 91.7375,91.2679 90.7375,91.7679 89.5,92C 92.7984,92.4867 95.7984,93.6534 98.5,95.5C 90.9188,108.998 83.0855,122.331 75,135.5C 74.2797,137.112 74.4464,138.612 75.5,140C 74.9056,140.464 74.2389,140.631 73.5,140.5C 66.6374,133.4 58.3041,128.9 48.5,127C 43.5111,126.501 38.5111,126.334 33.5,126.5C 36.3054,125.681 39.3054,125.181 42.5,125C 41.9747,124.308 41.3081,123.808 40.5,123.5C 39.2322,124.428 37.8989,124.595 36.5,124C 43.3821,114.41 49.3821,104.243 54.5,93.5C 51.5134,92.2161 49.0134,92.8828 47,95.5C 46.586,95.0426 46.086,94.7093 45.5,94.5C 42.2216,95.6866 39.2216,97.3533 36.5,99.5C 35.8165,99.1373 35.1499,98.8039 34.5,98.5C 46.8476,91.7651 60.1809,88.4317 74.5,88.5C 80.5213,89.1077 86.5213,89.7744 92.5,90.5 Z"/></g>
<g><path style="opacity:1" fill="#19b2b9" d="M 92.5,90.5 C 103.947,92.396 114.28,96.7294 123.5,103.5C 123.33,104.822 123.663,105.989 124.5,107C 114.253,124.678 103.92,142.178 93.5,159.5C 86.2224,153.891 79.5557,147.558 73.5,140.5C 74.2389,140.631 74.9056,140.464 75.5,140C 74.4464,138.612 74.2797,137.112 75,135.5C 83.0855,122.331 90.9188,108.998 98.5,95.5C 95.7984,93.6534 92.7984,92.4867 89.5,92C 90.7375,91.7679 91.7375,91.2679 92.5,90.5 Z"/></g>
<g><path style="opacity:1" fill="#1da7bc" d="M 33.5,126.5 C 22.6446,129.258 13.3113,134.592 5.5,142.5C 3.96497,143.354 2.63163,143.354 1.5,142.5C 6.22184,123.028 17.2218,108.361 34.5,98.5C 35.1499,98.8039 35.8165,99.1373 36.5,99.5C 39.2216,97.3533 42.2216,95.6866 45.5,94.5C 46.086,94.7093 46.586,95.0426 47,95.5C 49.0134,92.8828 51.5134,92.2161 54.5,93.5C 49.3821,104.243 43.3821,114.41 36.5,124C 37.8989,124.595 39.2322,124.428 40.5,123.5C 41.3081,123.808 41.9747,124.308 42.5,125C 39.3054,125.181 36.3054,125.681 33.5,126.5 Z"/></g>
<g><path style="opacity:1" fill="#17b8b9" d="M 123.5,103.5 C 130.082,107.413 135.749,112.413 140.5,118.5C 139.761,118.369 139.094,118.536 138.5,119C 141.167,121.667 143.833,124.333 146.5,127C 137.386,140.717 128.886,154.883 121,169.5C 120.021,171.32 118.521,172.487 116.5,173C 117.056,173.383 117.389,173.883 117.5,174.5C 108.145,171.499 100.145,166.499 93.5,159.5C 103.92,142.178 114.253,124.678 124.5,107C 123.663,105.989 123.33,104.822 123.5,103.5 Z"/></g>
<g><path style="opacity:0.647" fill="#15bdb8" d="M 223.5,123.5 C 223.672,122.508 223.338,121.842 222.5,121.5C 223.002,119.915 224.002,119.415 225.5,120C 224.915,121.302 224.249,122.469 223.5,123.5 Z"/></g>
<g><path style="opacity:1" fill="#15beb8" d="M 140.5,118.5 C 146.33,124.162 152.33,129.662 158.5,135C 162.434,137.464 166.434,139.631 170.5,141.5C 162.69,153.103 155.357,165.103 148.5,177.5C 144.697,178.496 140.697,178.663 136.5,178C 138.058,178.21 139.391,178.71 140.5,179.5C 138.5,179.5 136.5,179.5 134.5,179.5C 128.793,178.319 123.126,176.652 117.5,174.5C 117.389,173.883 117.056,173.383 116.5,173C 118.521,172.487 120.021,171.32 121,169.5C 128.886,154.883 137.386,140.717 146.5,127C 143.833,124.333 141.167,121.667 138.5,119C 139.094,118.536 139.761,118.369 140.5,118.5 Z"/></g>
<g><path style="opacity:0.4" fill="#16bab9" d="M 223.5,124.5 C 223.267,127.542 222.267,130.208 220.5,132.5C 220.733,129.458 221.733,126.792 223.5,124.5 Z"/></g>
<g><path style="opacity:1" fill="#13c9b9" d="M 222.5,121.5 C 223.338,121.842 223.672,122.508 223.5,123.5C 223.5,123.833 223.5,124.167 223.5,124.5C 221.733,126.792 220.733,129.458 220.5,132.5C 215.638,148.685 205.972,161.018 191.5,169.5C 190.761,169.631 190.094,169.464 189.5,169C 192.167,167 194.833,165 197.5,163C 197.167,162.667 196.833,162.333 196.5,162C 202.05,153.387 206.884,144.554 211,135.5C 209.16,137.49 207.993,137.49 207.5,135.5C 213.155,131.511 218.155,126.844 222.5,121.5 Z"/></g>
<g><path style="opacity:0.998" fill="#13c5b7" d="M 207.5,135.5 C 207.993,137.49 209.16,137.49 211,135.5C 206.884,144.554 202.05,153.387 196.5,162C 196.833,162.333 197.167,162.667 197.5,163C 194.833,165 192.167,167 189.5,169C 190.094,169.464 190.761,169.631 191.5,169.5C 183.06,174.423 174.06,177.757 164.5,179.5C 156.5,179.5 148.5,179.5 140.5,179.5C 139.391,178.71 138.058,178.21 136.5,178C 140.697,178.663 144.697,178.496 148.5,177.5C 155.357,165.103 162.69,153.103 170.5,141.5C 172.565,141.517 174.565,141.85 176.5,142.5C 181.985,143.652 187.651,143.818 193.5,143C 194.416,142.722 195.082,142.222 195.5,141.5C 197.698,141.88 199.365,141.213 200.5,139.5C 202.833,138.167 205.167,136.833 207.5,135.5 Z"/></g>
<g><path style="opacity:0.4" fill="#15b9b8" d="M 200.5,139.5 C 199.365,141.213 197.698,141.88 195.5,141.5C 196.93,140.463 198.597,139.796 200.5,139.5 Z"/></g>
<g><path style="opacity:0.198" fill="#16b9b8" d="M 195.5,141.5 C 195.082,142.222 194.416,142.722 193.5,143C 187.651,143.818 181.985,143.652 176.5,142.5C 182.878,142.705 189.211,142.372 195.5,141.5 Z"/></g>
<g><path style="opacity:1" fill="#1bb1be" d="M 1.5,142.5 C 2.63163,143.354 3.96497,143.354 5.5,142.5C 4.20027,145.432 2.20027,147.766 -0.5,149.5C -0.5,148.167 -0.5,146.833 -0.5,145.5C 0.166667,144.5 0.833333,143.5 1.5,142.5 Z"/></g>
</svg>
