<?xml version="1.0" encoding="UTF-8"?>
<!DOCTYPE svg PUBLIC "-//W3C//DTD SVG 1.1//EN" "http://www.w3.org/Graphics/SVG/1.1/DTD/svg11.dtd">
<svg xmlns="http://www.w3.org/2000/svg" version="1.1" width="499px" height="500px" style="shape-rendering:geometricPrecision; text-rendering:geometricPrecision; image-rendering:optimizeQuality; fill-rule:evenodd; clip-rule:evenodd" xmlns:xlink="http://www.w3.org/1999/xlink">
<g><path style="opacity:1" fill="#030407" d="M -0.5,-0.5 C 165.833,-0.5 332.167,-0.5 498.5,-0.5C 498.5,166.167 498.5,332.833 498.5,499.5C 332.167,499.5 165.833,499.5 -0.5,499.5C -0.5,332.833 -0.5,166.167 -0.5,-0.5 Z"/></g>
<g><path style="opacity:1" fill="#0d1925" d="M 329.5,6.5 C 326.167,6.5 322.833,6.5 319.5,6.5C 306.185,5.66726 292.851,5.33393 279.5,5.5C 293.235,4.82528 307.069,4.15861 321,3.5C 324.025,4.19365 326.858,5.19365 329.5,6.5 Z"/></g>
<g><path style="opacity:1" fill="#0c1a27" d="M 220.5,8.5 C 180.499,8.28786 140.499,7.95452 100.5,7.5C 100.611,6.88258 100.944,6.38258 101.5,6C 109.167,5.83333 116.833,5.66667 124.5,5.5C 156.648,6.78425 188.648,7.78425 220.5,8.5 Z"/></g>
<g><path style="opacity:1" fill="#479bd1" d="M 279.5,5.5 C 292.851,5.33393 306.185,5.66726 319.5,6.5C 325.094,7.09252 330.761,7.92586 336.5,9C 360.839,9.27258 385.173,9.77258 409.5,10.5C 419.512,9.94335 429.512,9.27668 439.5,8.5C 445.889,7.80324 452.222,6.80324 458.5,5.5C 464.041,5.47498 469.374,6.47498 474.5,8.5C 479.438,4.60168 484.272,4.60168 489,8.5C 489.258,16.8533 489.758,25.1867 490.5,33.5C 489.959,39.125 490.292,44.7917 491.5,50.5C 490.654,56.4737 489.987,62.4737 489.5,68.5C 490.941,73.304 491.607,78.304 491.5,83.5C 491.052,95.6703 490.386,107.67 489.5,119.5C 488.833,129.661 488.5,139.995 488.5,150.5C 488.468,170.319 489.135,189.985 490.5,209.5C 488.61,209.703 487.11,209.037 486,207.5C 485.219,208.944 485.386,210.277 486.5,211.5C 487.086,211.291 487.586,210.957 488,210.5C 488.012,224.074 488.845,237.574 490.5,251C 489.825,258.821 489.325,266.654 489,274.5C 488.667,274.833 488.333,275.167 488,275.5C 487.51,274.207 487.343,272.873 487.5,271.5C 486.5,271.5 485.5,271.5 484.5,271.5C 484.5,266.5 484.5,261.5 484.5,256.5C 483.5,256.5 482.5,256.5 481.5,256.5C 481.334,261.511 481.501,266.511 482,271.5C 484.325,272.233 485.825,273.733 486.5,276C 485.953,278.217 484.953,280.217 483.5,282C 484.289,283.626 485.289,285.126 486.5,286.5C 485.145,287.675 485.312,288.675 487,289.5C 489.778,288.315 491.278,289.315 491.5,292.5C 490.167,292.5 488.833,292.5 487.5,292.5C 488.917,296.002 489.584,299.669 489.5,303.5C 486.708,303.452 484.875,304.785 484,307.5C 483.564,305.153 483.064,302.819 482.5,300.5C 483.186,298.653 484.186,296.986 485.5,295.5C 483.951,293.098 483.284,290.432 483.5,287.5C 481.336,287.279 479.67,286.279 478.5,284.5C 474.61,283.015 470.61,281.515 466.5,280C 464.884,279.385 463.551,278.385 462.5,277C 459.867,277.253 457.2,277.253 454.5,277C 452.152,275.16 449.485,273.993 446.5,273.5C 442.284,274.31 438.117,275.31 434,276.5C 432.893,276.415 431.893,276.081 431,275.5C 426.533,278.965 422.367,282.798 418.5,287C 412.103,290.254 407.937,295.421 406,302.5C 404.831,308.184 403.664,313.851 402.5,319.5C 400.418,324.473 398.918,329.806 398,335.5C 397.738,317.534 397.904,299.534 398.5,281.5C 397.714,279.429 396.381,277.762 394.5,276.5C 395.428,275.232 395.595,273.899 395,272.5C 393.214,274.099 391.047,274.933 388.5,275C 378.825,275.579 369.158,275.412 359.5,274.5C 352.246,274.679 345.246,275.679 338.5,277.5C 334.098,277.772 329.765,277.439 325.5,276.5C 311.553,277.942 297.553,278.942 283.5,279.5C 283.333,294.837 283.5,310.17 284,325.5C 285.645,331.079 286.812,336.746 287.5,342.5C 291.722,342.263 295.889,342.596 300,343.5C 302.166,342.25 304.499,341.584 307,341.5C 310.281,342.965 313.781,343.632 317.5,343.5C 318.548,382.141 318.548,420.808 317.5,459.5C 316.506,468.652 316.173,477.985 316.5,487.5C 314.833,487.5 313.167,487.5 311.5,487.5C 311.5,488.5 311.5,489.5 311.5,490.5C 293.489,490.4 275.489,490.734 257.5,491.5C 244.483,491.265 231.483,491.599 218.5,492.5C 215.58,492.616 212.913,491.949 210.5,490.5C 208.792,490.703 207.459,491.536 206.5,493C 192.833,493.667 179.167,493.667 165.5,493C 162.314,492.601 159.314,491.768 156.5,490.5C 151.542,491.493 146.542,492.16 141.5,492.5C 129.659,490.872 117.992,491.205 106.5,493.5C 103.174,492.953 99.8404,492.453 96.5,492C 95.3545,490.141 93.6878,489.307 91.5,489.5C 84.2162,490.874 76.8829,491.874 69.5,492.5C 65.1667,491.833 60.8333,491.167 56.5,490.5C 47.5781,491.994 38.5781,492.994 29.5,493.5C 25.7832,493.573 22.2832,492.906 19,491.5C 14.7441,493.514 11.0774,492.848 8,489.5C 7.85171,472.774 7.01838,456.107 5.5,439.5C 5.27864,431.233 6.27864,423.233 8.5,415.5C 9.20624,402.595 10.2062,389.929 11.5,377.5C 10.066,375.78 9.23263,373.78 9,371.5C 8.50724,325.832 8.00724,280.166 7.5,234.5C 7.99274,199.503 8.32607,164.503 8.5,129.5C 8.7698,90.2088 7.93646,51.2088 6,12.5C 7.41957,10.578 9.25291,9.24465 11.5,8.5C 33.7172,7.09147 55.8838,7.4248 78,9.5C 85.6274,9.64799 93.1274,8.98133 100.5,7.5C 140.499,7.95452 180.499,8.28786 220.5,8.5C 238.836,8.66661 257.17,8.49994 275.5,8C 276.471,6.51869 277.804,5.68535 279.5,5.5 Z"/></g>
<g><path style="opacity:1" fill="#5694ba" d="M 319.5,6.5 C 322.833,6.5 326.167,6.5 329.5,6.5C 334.177,6.83453 338.844,7.33453 343.5,8C 375.674,8.33004 407.674,8.49671 439.5,8.5C 429.512,9.27668 419.512,9.94335 409.5,10.5C 385.173,9.77258 360.839,9.27258 336.5,9C 330.761,7.92586 325.094,7.09252 319.5,6.5 Z"/></g>
<g><path style="opacity:1" fill="#06080b" d="M 478.5,284.5 C 479.492,288.65 481.159,292.483 483.5,296C 480.973,298.574 479.806,301.74 480,305.5C 477,310.5 474,315.5 471,320.5C 469.527,322.007 467.693,322.674 465.5,322.5C 461.886,322.196 458.552,321.029 455.5,319C 452.854,318.503 450.187,318.336 447.5,318.5C 447.047,317.542 446.381,316.708 445.5,316C 442.167,315.333 438.833,315.333 435.5,316C 433.951,317.214 432.785,318.714 432,320.5C 425.895,340.305 429.395,358.138 442.5,374C 445.921,375.039 448.588,377.039 450.5,380C 452.5,380.333 454.5,380.667 456.5,381C 461.408,383.565 466.074,386.565 470.5,390C 472.409,393.66 474.909,396.827 478,399.5C 478.482,410.702 479.316,421.868 480.5,433C 481.098,438.415 479.598,442.915 476,446.5C 472.249,456.077 467.916,465.41 463,474.5C 460.48,475.207 457.98,476.04 455.5,477C 453.917,478.758 452.25,480.258 450.5,481.5C 450.942,477.616 449.275,475.616 445.5,475.5C 451.915,472.865 457.415,468.865 462,463.5C 465.529,455.246 468.862,446.913 472,438.5C 474.522,424.781 472.522,411.781 466,399.5C 463.833,397.333 461.667,395.167 459.5,393C 457.167,392.667 454.833,392.333 452.5,392C 447.474,388.741 442.14,386.075 436.5,384C 425.768,374.244 419.935,362.077 419,347.5C 417.483,335.79 418.816,324.456 423,313.5C 426.976,306.764 432.809,304.264 440.5,306C 448.02,308.373 455.52,310.873 463,313.5C 467.701,308.594 471.535,303.094 474.5,297C 473.187,293.336 470.521,291.669 466.5,292C 457.73,284.975 447.73,282.642 436.5,285C 427.782,288.715 421.282,294.882 417,303.5C 413.349,315.95 410.849,328.616 409.5,341.5C 411.158,352.75 411.992,364.083 412,375.5C 414.372,380.412 416.872,385.245 419.5,390C 430.114,394.536 440.78,398.869 451.5,403C 454.939,405.139 458.106,407.639 461,410.5C 463.499,420.159 462.499,429.493 458,438.5C 443.284,465.327 421.95,472.994 394,461.5C 390.44,465.953 387.94,470.953 386.5,476.5C 388.631,477.169 390.631,477.835 392.5,478.5C 388.681,478.472 387.681,480.138 389.5,483.5C 389.098,485.3 388.431,486.967 387.5,488.5C 386.709,486.691 386.709,484.691 387.5,482.5C 383.116,482.826 378.783,482.492 374.5,481.5C 376.818,474.564 378.985,467.564 381,460.5C 384.512,459.516 386.678,457.183 387.5,453.5C 389.404,452.591 391.238,451.591 393,450.5C 397.26,452.168 401.76,453.001 406.5,453C 408.959,453.97 411.292,455.137 413.5,456.5C 417.804,455.79 422.137,455.29 426.5,455C 430.29,452.623 434.29,450.623 438.5,449C 442.503,442.31 446.503,435.643 450.5,429C 451.406,424.853 451.573,420.686 451,416.5C 449.562,415.1 448.729,413.433 448.5,411.5C 442.902,409.148 436.902,407.648 430.5,407C 428.317,404.65 425.984,402.483 423.5,400.5C 422.5,401.167 421.5,401.833 420.5,402.5C 417.997,401.036 415.33,399.869 412.5,399C 409.603,392.881 406.937,386.714 404.5,380.5C 404.716,378.319 403.883,376.653 402,375.5C 400.939,363.683 400.105,351.85 399.5,340C 401.224,333.309 402.224,326.475 402.5,319.5C 403.664,313.851 404.831,308.184 406,302.5C 407.937,295.421 412.103,290.254 418.5,287C 422.367,282.798 426.533,278.965 431,275.5C 431.893,276.081 432.893,276.415 434,276.5C 438.117,275.31 442.284,274.31 446.5,273.5C 449.485,273.993 452.152,275.16 454.5,277C 457.2,277.253 459.867,277.253 462.5,277C 463.551,278.385 464.884,279.385 466.5,280C 470.61,281.515 474.61,283.015 478.5,284.5 Z"/></g>
<g><path style="opacity:1" fill="#f8f8f8" d="M 445.5,475.5 C 443.86,476.32 442.193,477.153 440.5,478C 424.472,479.416 408.472,479.582 392.5,478.5C 390.631,477.835 388.631,477.169 386.5,476.5C 387.94,470.953 390.44,465.953 394,461.5C 421.95,472.994 443.284,465.327 458,438.5C 462.499,429.493 463.499,420.159 461,410.5C 458.106,407.639 454.939,405.139 451.5,403C 440.78,398.869 430.114,394.536 419.5,390C 416.872,385.245 414.372,380.412 412,375.5C 411.992,364.083 411.158,352.75 409.5,341.5C 410.849,328.616 413.349,315.95 417,303.5C 421.282,294.882 427.782,288.715 436.5,285C 447.73,282.642 457.73,284.975 466.5,292C 470.521,291.669 473.187,293.336 474.5,297C 471.535,303.094 467.701,308.594 463,313.5C 455.52,310.873 448.02,308.373 440.5,306C 432.809,304.264 426.976,306.764 423,313.5C 418.816,324.456 417.483,335.79 419,347.5C 419.935,362.077 425.768,374.244 436.5,384C 442.14,386.075 447.474,388.741 452.5,392C 454.833,392.333 457.167,392.667 459.5,393C 461.667,395.167 463.833,397.333 466,399.5C 472.522,411.781 474.522,424.781 472,438.5C 468.862,446.913 465.529,455.246 462,463.5C 457.415,468.865 451.915,472.865 445.5,475.5 Z"/></g>
<g><path style="opacity:1" fill="#fcfcfc" d="M 385.5,287.5 C 385.5,302.5 385.5,317.5 385.5,332.5C 373.322,332.172 361.322,332.505 349.5,333.5C 348.132,383.844 346.465,434.177 344.5,484.5C 338.833,484.5 333.167,484.5 327.5,484.5C 327.614,434.144 327.614,383.811 327.5,333.5C 316.679,332.505 305.679,332.172 294.5,332.5C 294.5,317.5 294.5,302.5 294.5,287.5C 324.833,287.5 355.167,287.5 385.5,287.5 Z"/></g>
<g><path style="opacity:1" fill="#5698c0" d="M 7.5,234.5 C 8.00724,280.166 8.50724,325.832 9,371.5C 9.23263,373.78 10.066,375.78 11.5,377.5C 10.2062,389.929 9.20624,402.595 8.5,415.5C 8.18621,383.343 7.51955,351.01 6.5,318.5C 6.70856,290.34 7.04189,262.34 7.5,234.5 Z"/></g>
<g><path style="opacity:1" fill="#a9a9a9" d="M 385.5,287.5 C 355.167,287.5 324.833,287.5 294.5,287.5C 294.5,302.5 294.5,317.5 294.5,332.5C 305.679,332.172 316.679,332.505 327.5,333.5C 316.167,333.5 304.833,333.5 293.5,333.5C 293.5,317.833 293.5,302.167 293.5,286.5C 324.338,286.169 355.005,286.502 385.5,287.5 Z"/></g>
<g><path style="opacity:1" fill="#4c9ac8" d="M 489.5,119.5 C 489.333,132.837 489.5,146.171 490,159.5C 491.307,171.801 492.141,184.135 492.5,196.5C 490.543,206.256 489.543,216.256 489.5,226.5C 489.345,234.346 490.011,242.012 491.5,249.5C 491.125,254.497 490.792,259.497 490.5,264.5C 490.318,268.561 490.985,272.395 492.5,276C 492.294,277.865 491.628,279.532 490.5,281C 491.358,284.124 492.025,287.29 492.5,290.5C 492.594,292.912 491.594,294.745 489.5,296C 490.126,296.75 490.626,297.584 491,298.5C 491.167,303 491.333,307.5 491.5,312C 489.85,326.002 489.183,340.169 489.5,354.5C 488.174,350.386 487.507,345.886 487.5,341C 487.293,334.712 487.959,328.546 489.5,322.5C 489.333,321.833 489.167,321.167 489,320.5C 486.574,323.83 484.074,323.997 481.5,321C 482.905,319.731 484.571,319.231 486.5,319.5C 486.756,317.208 486.423,315.041 485.5,313C 483.625,315.068 481.291,316.234 478.5,316.5C 476.757,314.276 475.424,314.776 474.5,318C 475.851,320.677 477.184,323.343 478.5,326C 477.833,326.667 477.167,327.333 476.5,328C 469.913,329.212 463.246,329.879 456.5,330C 455.663,331.011 455.33,332.178 455.5,333.5C 453.046,333.321 450.879,333.987 449,335.5C 446.98,334.968 446.147,333.635 446.5,331.5C 454.161,330.476 454.161,329.143 446.5,327.5C 446.147,325.365 446.98,324.032 449,323.5C 451.499,324.083 453.499,325.416 455,327.5C 456.333,326.167 457.667,326.167 459,327.5C 460.866,325.133 460.366,323.133 457.5,321.5C 453.724,321.23 450.39,320.23 447.5,318.5C 450.187,318.336 452.854,318.503 455.5,319C 458.552,321.029 461.886,322.196 465.5,322.5C 467.693,322.674 469.527,322.007 471,320.5C 474,315.5 477,310.5 480,305.5C 479.806,301.74 480.973,298.574 483.5,296C 481.159,292.483 479.492,288.65 478.5,284.5C 479.67,286.279 481.336,287.279 483.5,287.5C 483.284,290.432 483.951,293.098 485.5,295.5C 484.186,296.986 483.186,298.653 482.5,300.5C 483.064,302.819 483.564,305.153 484,307.5C 484.875,304.785 486.708,303.452 489.5,303.5C 489.584,299.669 488.917,296.002 487.5,292.5C 488.833,292.5 490.167,292.5 491.5,292.5C 491.278,289.315 489.778,288.315 487,289.5C 485.312,288.675 485.145,287.675 486.5,286.5C 485.289,285.126 484.289,283.626 483.5,282C 484.953,280.217 485.953,278.217 486.5,276C 485.825,273.733 484.325,272.233 482,271.5C 481.501,266.511 481.334,261.511 481.5,256.5C 482.5,256.5 483.5,256.5 484.5,256.5C 484.5,261.5 484.5,266.5 484.5,271.5C 485.5,271.5 486.5,271.5 487.5,271.5C 487.343,272.873 487.51,274.207 488,275.5C 488.333,275.167 488.667,274.833 489,274.5C 489.325,266.654 489.825,258.821 490.5,251C 488.845,237.574 488.012,224.074 488,210.5C 487.586,210.957 487.086,211.291 486.5,211.5C 485.386,210.277 485.219,208.944 486,207.5C 487.11,209.037 488.61,209.703 490.5,209.5C 489.135,189.985 488.468,170.319 488.5,150.5C 488.5,139.995 488.833,129.661 489.5,119.5 Z"/></g>
<g><path style="opacity:1" fill="#489bcf" d="M 489.5,354.5 C 489.783,355.289 490.283,355.956 491,356.5C 491.167,371.667 491.333,386.833 491.5,402C 491.366,430.908 490.866,459.741 490,488.5C 489.535,489.931 488.701,491.097 487.5,492C 473.751,491.046 460.084,491.879 446.5,494.5C 443.156,494.803 440.822,493.47 439.5,490.5C 439.5,489.833 439.5,489.167 439.5,488.5C 441.979,484.42 445.646,482.087 450.5,481.5C 452.25,480.258 453.917,478.758 455.5,477C 457.98,476.04 460.48,475.207 463,474.5C 467.916,465.41 472.249,456.077 476,446.5C 479.598,442.915 481.098,438.415 480.5,433C 479.316,421.868 478.482,410.702 478,399.5C 474.909,396.827 472.409,393.66 470.5,390C 466.074,386.565 461.408,383.565 456.5,381C 454.5,380.667 452.5,380.333 450.5,380C 448.588,377.039 445.921,375.039 442.5,374C 429.395,358.138 425.895,340.305 432,320.5C 432.785,318.714 433.951,317.214 435.5,316C 438.833,315.333 442.167,315.333 445.5,316C 446.381,316.708 447.047,317.542 447.5,318.5C 450.39,320.23 453.724,321.23 457.5,321.5C 460.366,323.133 460.866,325.133 459,327.5C 457.667,326.167 456.333,326.167 455,327.5C 453.499,325.416 451.499,324.083 449,323.5C 446.98,324.032 446.147,325.365 446.5,327.5C 454.161,329.143 454.161,330.476 446.5,331.5C 446.147,333.635 446.98,334.968 449,335.5C 450.879,333.987 453.046,333.321 455.5,333.5C 455.33,332.178 455.663,331.011 456.5,330C 463.246,329.879 469.913,329.212 476.5,328C 477.167,327.333 477.833,326.667 478.5,326C 477.184,323.343 475.851,320.677 474.5,318C 475.424,314.776 476.757,314.276 478.5,316.5C 481.291,316.234 483.625,315.068 485.5,313C 486.423,315.041 486.756,317.208 486.5,319.5C 484.571,319.231 482.905,319.731 481.5,321C 484.074,323.997 486.574,323.83 489,320.5C 489.167,321.167 489.333,321.833 489.5,322.5C 487.959,328.546 487.293,334.712 487.5,341C 487.507,345.886 488.174,350.386 489.5,354.5 Z"/></g>
<g><path style="opacity:1" fill="#8a8989" d="M 385.5,287.5 C 386.496,302.658 386.83,317.991 386.5,333.5C 374.167,333.5 361.833,333.5 349.5,333.5C 361.322,332.505 373.322,332.172 385.5,332.5C 385.5,317.5 385.5,302.5 385.5,287.5 Z"/></g>
<g><path style="opacity:1" fill="#3b7399" d="M 395.5,341.5 C 392.576,342.366 389.576,343.366 386.5,344.5C 380.758,344.263 375.424,343.263 370.5,341.5C 373.421,340.281 376.588,339.614 380,339.5C 385.029,341.004 390.196,341.67 395.5,341.5 Z"/></g>
<g><path style="opacity:1" fill="#479bd1" d="M 404.5,380.5 C 406.937,386.714 409.603,392.881 412.5,399C 415.33,399.869 417.997,401.036 420.5,402.5C 421.5,401.833 422.5,401.167 423.5,400.5C 425.984,402.483 428.317,404.65 430.5,407C 436.902,407.648 442.902,409.148 448.5,411.5C 448.729,413.433 449.562,415.1 451,416.5C 451.573,420.686 451.406,424.853 450.5,429C 446.503,435.643 442.503,442.31 438.5,449C 434.29,450.623 430.29,452.623 426.5,455C 422.137,455.29 417.804,455.79 413.5,456.5C 411.292,455.137 408.959,453.97 406.5,453C 401.76,453.001 397.26,452.168 393,450.5C 391.238,451.591 389.404,452.591 387.5,453.5C 386.678,457.183 384.512,459.516 381,460.5C 378.985,467.564 376.818,474.564 374.5,481.5C 378.783,482.492 383.116,482.826 387.5,482.5C 386.709,484.691 386.709,486.691 387.5,488.5C 384.878,489.201 381.044,490.201 376,491.5C 374.715,491.05 373.548,490.383 372.5,489.5C 371.167,490.167 369.833,490.833 368.5,491.5C 365.88,490.478 363.213,490.478 360.5,491.5C 358.97,491.36 357.97,490.693 357.5,489.5C 356.972,488.279 356.305,487.113 355.5,486C 356.322,474.576 356.822,463.076 357,451.5C 357.333,450.167 357.667,448.833 358,447.5C 358.741,446.359 359.575,446.359 360.5,447.5C 362.336,441.12 363.503,441.12 364,447.5C 364.39,443.931 365.39,440.597 367,437.5C 366.014,430.256 365.514,422.923 365.5,415.5C 364.178,415.33 363.011,415.663 362,416.5C 361.975,426.288 360.975,435.955 359,445.5C 358.871,430.824 359.371,416.157 360.5,401.5C 359.003,392.471 359.17,383.471 361,374.5C 361.691,377.266 363.191,377.933 365.5,376.5C 366.5,375 367.5,373.5 368.5,372C 367.852,370.56 367.519,369.06 367.5,367.5C 365.533,367.739 363.699,367.406 362,366.5C 361.333,360.833 361.333,355.167 362,349.5C 364.243,351.787 366.743,351.953 369.5,350C 368.207,349.51 366.873,349.343 365.5,349.5C 365.215,347.712 365.548,346.045 366.5,344.5C 371.151,345.116 375.818,345.782 380.5,346.5C 377.891,347.76 378.057,348.76 381,349.5C 384.174,346.613 386.341,347.279 387.5,351.5C 390.626,349.942 394.293,349.275 398.5,349.5C 399.164,358.815 399.164,367.815 398.5,376.5C 399.675,376.281 400.675,376.614 401.5,377.5C 402.083,379.002 402.916,380.335 404,381.5C 404.399,381.272 404.565,380.938 404.5,380.5 Z"/></g>
<g><path style="opacity:1" fill="#4e9ac7" d="M 402.5,319.5 C 402.224,326.475 401.224,333.309 399.5,340C 400.105,351.85 400.939,363.683 402,375.5C 403.883,376.653 404.716,378.319 404.5,380.5C 404.565,380.938 404.399,381.272 404,381.5C 402.916,380.335 402.083,379.002 401.5,377.5C 400.675,376.614 399.675,376.281 398.5,376.5C 399.164,367.815 399.164,358.815 398.5,349.5C 394.293,349.275 390.626,349.942 387.5,351.5C 386.341,347.279 384.174,346.613 381,349.5C 378.057,348.76 377.891,347.76 380.5,346.5C 375.818,345.782 371.151,345.116 366.5,344.5C 365.548,346.045 365.215,347.712 365.5,349.5C 366.873,349.343 368.207,349.51 369.5,350C 366.743,351.953 364.243,351.787 362,349.5C 361.333,355.167 361.333,360.833 362,366.5C 363.699,367.406 365.533,367.739 367.5,367.5C 367.519,369.06 367.852,370.56 368.5,372C 367.5,373.5 366.5,375 365.5,376.5C 363.191,377.933 361.691,377.266 361,374.5C 359.17,383.471 359.003,392.471 360.5,401.5C 359.371,416.157 358.871,430.824 359,445.5C 360.975,435.955 361.975,426.288 362,416.5C 363.011,415.663 364.178,415.33 365.5,415.5C 365.514,422.923 366.014,430.256 367,437.5C 365.39,440.597 364.39,443.931 364,447.5C 363.503,441.12 362.336,441.12 360.5,447.5C 359.575,446.359 358.741,446.359 358,447.5C 357.667,448.833 357.333,450.167 357,451.5C 356.822,463.076 356.322,474.576 355.5,486C 356.305,487.113 356.972,488.279 357.5,489.5C 353.16,489.146 352.327,487.146 355,483.5C 355.307,468.154 355.807,452.821 356.5,437.5C 357.276,425.996 357.943,414.329 358.5,402.5C 358.042,398.177 357.709,393.843 357.5,389.5C 359.044,374.194 360.044,358.861 360.5,343.5C 363.552,341.822 366.885,341.155 370.5,341.5C 375.424,343.263 380.758,344.263 386.5,344.5C 389.576,343.366 392.576,342.366 395.5,341.5C 395.742,321.053 395.909,300.72 396,280.5C 394.513,279.845 393.347,278.845 392.5,277.5C 374.496,276.283 356.496,276.283 338.5,277.5C 345.246,275.679 352.246,274.679 359.5,274.5C 369.158,275.412 378.825,275.579 388.5,275C 391.047,274.933 393.214,274.099 395,272.5C 395.595,273.899 395.428,275.232 394.5,276.5C 396.381,277.762 397.714,279.429 398.5,281.5C 397.904,299.534 397.738,317.534 398,335.5C 398.918,329.806 400.418,324.473 402.5,319.5 Z"/></g>
<g><path style="opacity:1" fill="#0c1721" d="M 360.5,343.5 C 360.044,358.861 359.044,374.194 357.5,389.5C 357.709,393.843 358.042,398.177 358.5,402.5C 357.943,414.329 357.276,425.996 356.5,437.5C 355.679,410.104 356.346,382.604 358.5,355C 358.51,350.771 359.177,346.938 360.5,343.5 Z"/></g>
<g><path style="opacity:1" fill="#525651" d="M 439.5,488.5 C 439.5,489.167 439.5,489.833 439.5,490.5C 428.947,490.457 428.947,489.79 439.5,488.5 Z"/></g>
<g><path style="opacity:1" fill="#4e8fb3" d="M 317.5,459.5 C 318.554,468.806 318.721,478.139 318,487.5C 314.688,490.435 310.854,492.102 306.5,492.5C 290.023,492.603 273.69,492.27 257.5,491.5C 275.489,490.734 293.489,490.4 311.5,490.5C 311.5,489.5 311.5,488.5 311.5,487.5C 313.167,487.5 314.833,487.5 316.5,487.5C 316.173,477.985 316.506,468.652 317.5,459.5 Z"/></g>
</svg>
